<?xml version="1.0" encoding="utf-8"?>
<!-- Generator: Adobe Illustrator 23.0.6, SVG Export Plug-In . SVG Version: 6.00 Build 0)  -->
<svg version="1.1"
	 id="svg2" xmlns:cc="http://creativecommons.org/ns#" xmlns:dc="http://purl.org/dc/elements/1.1/" xmlns:inkscape="http://www.inkscape.org/namespaces/inkscape" xmlns:rdf="http://www.w3.org/1999/02/22-rdf-syntax-ns#" xmlns:sodipodi="http://sodipodi.sourceforge.net/DTD/sodipodi-0.dtd" xmlns:svg="http://www.w3.org/2000/svg"
	 xmlns="http://www.w3.org/2000/svg" xmlns:xlink="http://www.w3.org/1999/xlink" x="0px" y="0px" viewBox="0 0 74.5 22.1"
	 style="enable-background:new 0 0 74.5 22.1;" xml:space="preserve">
<style type="text/css">
	.st0{fill:#FF5900;}
	.st1{fill:#2A007C;}
</style>
<sodipodi:namedview  bordercolor="#666666" borderopacity="1" fit-margin-bottom="0" fit-margin-left="0" fit-margin-right="0.2" fit-margin-top="0" gridtolerance="10" guidetolerance="10" id="namedview30" inkscape:current-layer="g6" inkscape:cx="50.329457" inkscape:cy="13.826428" inkscape:pageopacity="0" inkscape:pageshadow="2" inkscape:window-height="1004" inkscape:window-maximized="1" inkscape:window-width="1280" inkscape:window-x="-8" inkscape:window-y="-8" inkscape:zoom="10.026645" objecttolerance="10" pagecolor="#ffffff" showgrid="false">
	</sodipodi:namedview>
<g id="g6" transform="translate(-0.81,-0.35400034)">
	<polygon id="polygon10" class="st0" points="60.8,8.1 63.7,11.4 66.6,8.1 72.7,8.1 66.7,14.9 72.8,21.6 66.4,21.6 63.5,18.3 
		60.6,21.6 54.4,21.6 60.4,14.9 54.4,8.1 	"/>
	<polygon id="polygon12" class="st0" points="54.4,8.1 54.4,12.7 47.6,12.7 47.6,16.9 54.4,16.9 54.4,21.6 42.6,21.6 42.6,0.4 
		54.4,0.4 54.4,5.1 47.6,5.1 47.6,8.1 	"/>
	<path id="path14" inkscape:connector-curvature="0" class="st1" d="M37.6,0.4v8.7h-0.1c-1.1-1.3-2.5-1.7-4.1-1.7
		c-3.3,0-5.7,2.2-6.6,5.2c-1-3.2-3.5-5.2-7.3-5.2c-3.1,0-5.5,1.4-6.8,3.6V8.1H6.5v-3h6.9V0.4H0.8v21.3h5.7v-8.9h5.6
		c-0.2,0.7-0.3,1.4-0.3,2.1c0,4.4,3.4,7.6,7.7,7.6c3.6,0,6-1.7,7.3-4.8H22c-0.7,0.9-1.2,1.2-2.5,1.2c-1.5,0-2.8-1.3-2.8-2.9h9.9
		c0.4,3.5,3.2,6.6,6.9,6.6c1.6,0,3.1-0.8,4-2.1h0.1v1.4h5V0.4H37.6z M16.9,12.8c0.3-1.4,1.4-2.2,2.7-2.2c1.4,0,2.4,0.9,2.7,2.2
		C22.4,12.8,16.9,12.8,16.9,12.8z M34.6,18.4c-1.8,0-3-1.7-3-3.5c0-1.9,1-3.7,3-3.7c2.1,0,2.9,1.8,2.9,3.7
		C37.5,16.7,36.6,18.4,34.6,18.4z"/>
</g>
</svg>
