<svg xmlns="http://www.w3.org/2000/svg" viewBox="0 0 1663.29 399"><defs><style>.cls-1{fill:#97bee5;}.cls-2{fill:#fff;stroke:#231f20;stroke-miterlimit:10;}</style></defs><title>o-wms-logo_1</title><g id="Layer_2" data-name="Layer 2"><g id="Layer_1-2" data-name="Layer 1"><path class="cls-1" d="M199.5,0C89.32,0,0,89.33,0,199.51c0,54,56.34,138.93,56.34,138.93,20.18-85.18,158.82-145,336.81-187C371.62,64.45,293.08,0,199.5,0Zm-58,390.43s37.84,8.57,58,8.57C309.67,399,399,309.71,399,199.55,219.21,250.06,97.1,313.69,141.48,390.43Z"/><path class="cls-2" d="M798.17,27.4,786.6,88C821.11,84.3,855.17,81,888.33,78L899.58,27.4ZM761.43,219.84,735.5,127.16c-55.8,9.5-111.83,19.94-166,31.3L552.29,220.1l-10.6-55.7c-31.7,6.91-62.64,14.15-92.39,21.72L490.94,371.6H596.17l60.69-216.71L717.78,371.6H823L882.55,104c-33.37,4.89-67.53,10.12-102,15.71ZM707.59,27.4H606L581.6,115c47.91-7.59,96.59-14.24,144.88-20.08Zm-192,0H413.67l25.52,113.68c30.74-6.52,62.4-12.56,94.6-18.15Z"/><path class="cls-2" d="M1170,27.4l-8.2,31.75c86.07-4.19,140.45-5.22,140.45-5.22s-55.72,4.86-142.85,14.55l-43.44,168.35-41.2-158.5c-47.19,5.74-99.42,12.47-154.37,20.2V371.6h87.89V109.11l67.6,262.49h79.56l67.72-262.49V371.6H1311V27.4Zm-108.47,0H920.37V75.17c53.73-4.54,104.62-8.14,150.7-11Z"/><path class="cls-2" d="M1347.69,257.73l102.11-6.34q3.32,24.66,13.51,37.57,16.57,20.9,47.37,20.89,23,0,35.43-10.68t12.43-24.77q0-13.38-11.84-23.95t-55-20q-70.59-15.72-100.68-41.79-30.35-26.05-30.33-66.45,0-26.52,15.52-50.12T1422.9,35q31.15-13.5,85.42-13.5,66.57,0,101.52,24.54t41.57,78.06L1550.25,130q-4-23.23-16.94-33.81t-35.65-10.56q-18.73,0-28.19,7.87T1460,112.63q0,8.22,7.82,14.79,7.57,6.81,36,12.68,70.37,15,100.81,30.41t44.3,38.15q13.86,22.78,13.86,51a108.39,108.39,0,0,1-18.48,61q-18.48,27.94-51.65,42.39T1509,377.47q-88.61,0-122.72-33.81T1347.69,257.73Z"/></g></g></svg>