<svg xmlns="http://www.w3.org/2000/svg" viewBox="0 0 228.39 49.12"><defs><style>.cls-1{fill:#97bee5;stroke:#231f20;stroke-miterlimit:10;}.cls-2{fill:#fff;}</style></defs><title>O-guide-logo</title><g id="Layer_2" data-name="Layer 2"><g id="Layer_1-2" data-name="Layer 1"><path class="cls-1" d="M48.63,24.57a24.06,24.06,0,0,1-24.06,24,44,44,0,0,1-7-1C12.22,38.34,26.94,30.66,48.63,24.57Z"/><path class="cls-1" d="M47.92,18.76C26.45,23.82,9.73,31.05,7.3,41.32c0,0-6.8-10.24-6.8-16.76a24.07,24.07,0,0,1,47.42-5.8Z"/><path class="cls-2" d="M96.54,21.64v17.7a41.33,41.33,0,0,1-10.16,5.29A34.88,34.88,0,0,1,75.91,46q-7.47,0-12.16-2.52A17.24,17.24,0,0,1,56.46,36a24.51,24.51,0,0,1-2.59-11.44q0-.72,0-1.41a25.63,25.63,0,0,1,.94-5.92,21,21,0,0,1,1.86-4.49A18.24,18.24,0,0,1,65,5.11q4.26-2,11.46-2,6.94,0,10.39,1.25a13.45,13.45,0,0,1,5.71,3.87,14.13,14.13,0,0,1,2,3,19.15,19.15,0,0,1,1.38,3.51l0,.13L83.48,17.06a1.8,1.8,0,0,0-.08-.21,6.62,6.62,0,0,0-2.54-3.39A7.28,7.28,0,0,0,80,13a8.86,8.86,0,0,0-3.88-.78A8.56,8.56,0,0,0,70,14.47a8.25,8.25,0,0,0-.65.67A10.43,10.43,0,0,0,67.22,20a24.15,24.15,0,0,0-.37,4.39q0,6.74,2.56,9.63a9,9,0,0,0,7.13,2.89,13.57,13.57,0,0,0,4.14-.63,22.13,22.13,0,0,0,4.51-2.12V30.28H76.54V21.64Z"/><path class="cls-2" d="M122.22,15.24V29.72q0,4.1-1.33,5.69A4.22,4.22,0,0,1,117.48,37a3.77,3.77,0,0,1-3-1.19,6.06,6.06,0,0,1-1-4V15.24H101.76V34.39c0,3.94.91,6.87,2.73,8.76A9.93,9.93,0,0,0,112,46a13.26,13.26,0,0,0,6.07-1.27,16,16,0,0,0,4.9-4.28v4.87h10.86V15.24Z"/><path class="cls-2" d="M139.76,15.24V45.32h11.63V15.24Z"/><rect class="cls-2" x="139.76" y="3.8" width="11.63" height="7.85"/><path class="cls-2" d="M189.19,3.8V45.32H178.3V40.87a14.64,14.64,0,0,1-4.17,3.83,12.12,12.12,0,0,1-5.6,1.3,10.86,10.86,0,0,1-9.48-4.67A19.32,19.32,0,0,1,155.78,30q0-7.47,3.62-11.44a11.89,11.89,0,0,1,9.18-4,13,13,0,0,1,4.93.91,11.08,11.08,0,0,1,3.93,2.72V3.8ZM177.53,30.2A7.91,7.91,0,0,0,176,24.91a4.85,4.85,0,0,0-3.83-1.74,4.25,4.25,0,0,0-3.4,1.67q-1.36,1.68-1.37,5.61c0,2.46.47,4.25,1.42,5.4a4.37,4.37,0,0,0,3.5,1.71A4.7,4.7,0,0,0,176,35.83Q177.53,34.11,177.53,30.2Z"/><path class="cls-2" d="M228.39,33.14H205.07a7.46,7.46,0,0,0,1.51,4.14,5.55,5.55,0,0,0,4.4,1.95,6.61,6.61,0,0,0,3.26-.85,7.54,7.54,0,0,0,2-1.9l11.46,1.05a16.3,16.3,0,0,1-6.35,6.5c-2.47,1.31-6,2-10.65,2-4,0-7.19-.56-9.49-1.69A13.77,13.77,0,0,1,195.51,39a16,16,0,0,1-2.27-8.62,15.09,15.09,0,0,1,4.55-11.41q4.56-4.36,12.59-4.37,6.52,0,10.29,2a13.24,13.24,0,0,1,5.74,5.66,20.49,20.49,0,0,1,2,9.66Zm-11.84-5.52a7.65,7.65,0,0,0-1.81-4.79,5.73,5.73,0,0,0-8.3.74,7.92,7.92,0,0,0-1.34,4.05Z"/></g></g></svg>