<svg xmlns="http://www.w3.org/2000/svg" viewBox="0 0 174.21 80"><defs><style>.cls-1,.cls-3{fill:#003a65;}.cls-2,.cls-5{fill:#52a2d9;}.cls-3{font-size:32px;font-family:Arial-Black, Arial;font-weight:800;}.cls-4{letter-spacing:-0.02em;}.cls-5{font-size:18px;font-family:ArialMT, Arial;letter-spacing:0.1em;}.cls-6{letter-spacing:0.02em;}.cls-7{letter-spacing:0.1em;}</style></defs><title>packStationLogo</title><g id="Layer_2" data-name="Layer 2"><g id="Layer_1-2" data-name="Layer 1"><path class="cls-1" d="M40,0,80,19.35l-6.11,12.1a21.75,21.75,0,0,1-4,5.94A9.82,9.82,0,0,1,63.86,40a14.89,14.89,0,0,1-7.74-1.68,15.08,15.08,0,0,1-7.46-7q-2-4.35,1.3-11l4.15-8.22L37.85,4.25ZM58.83,14.4l-4.19,8.31q-2,3.91-1.09,6.62t4.56,4.46a9.54,9.54,0,0,0,4.52,1.07,5.85,5.85,0,0,0,3.41-1A13.19,13.19,0,0,0,69,29.54l4.15-8.22Z"/><path class="cls-1" d="M42.15,4.25,25.89,12.12,30,20.34q3.35,6.63,1.3,11a15.08,15.08,0,0,1-7.46,7A14.89,14.89,0,0,1,16.14,40a9.77,9.77,0,0,1-6.08-2.57,21.75,21.75,0,0,1-3.95-5.94L0,19.35,40,0ZM6.87,21.32,11,29.54A13.19,13.19,0,0,0,14,33.82a5.88,5.88,0,0,0,3.41,1,9.54,9.54,0,0,0,4.52-1.07q3.66-1.77,4.56-4.46t-1.09-6.62L21.17,14.4Z"/><path class="cls-2" d="M40,80,0,60.65l6.11-12.1a21.75,21.75,0,0,1,4-5.94A9.77,9.77,0,0,1,16.14,40a15,15,0,0,1,7.75,1.68,15.05,15.05,0,0,1,7.45,7q2,4.35-1.3,11l-4.15,8.22,16.26,7.87ZM21.17,65.6l4.19-8.31q2-3.91,1.08-6.62t-4.55-4.46a9.54,9.54,0,0,0-4.52-1.07,5.88,5.88,0,0,0-3.41,1A13,13,0,0,0,11,50.46L6.87,58.68Z"/><path class="cls-2" d="M37.85,75.75l16.26-7.87L50,59.66q-3.35-6.63-1.3-11a15.08,15.08,0,0,1,7.46-7A14.89,14.89,0,0,1,63.86,40a9.82,9.82,0,0,1,6.08,2.57,21.75,21.75,0,0,1,4,5.94L80,60.65,40,80ZM73.13,58.68,69,50.46A13,13,0,0,0,66,46.18a5.88,5.88,0,0,0-3.41-1,9.54,9.54,0,0,0-4.52,1.07Q54.45,48,53.56,50.67t1.08,6.62l4.19,8.31Z"/><text class="cls-3" transform="translate(88.16 38.25)"><tspan class="cls-4">P</tspan><tspan x="22.56" y="0">a</tspan><tspan class="cls-4" x="43.91" y="0">c</tspan><tspan x="64.7" y="0">k</tspan></text><text class="cls-5" transform="translate(88 63.36) scale(0.99 1)">S<tspan class="cls-6" x="13.73" y="0">TA</tspan><tspan class="cls-7" x="37.52" y="0">TION</tspan></text></g></g></svg>