<svg xmlns="http://www.w3.org/2000/svg" viewBox="0 0 101.11 68.37"><defs><style>.cls-1{fill:#8b87b9;}</style></defs><title>9-24 packStation-Asset 1</title><g id="Layer_2" data-name="Layer 2"><g id="Layer_1-2" data-name="Layer 1"><path class="cls-1" d="M61.88,52c-5.57,9.53-16,16.39-27.88,16.39A33.62,33.62,0,1,1,34,1.14c4.64,0,11,3,11,3.44,0,0,1.07,2.41-1.53,1.92a47.87,47.87,0,0,0-8-1.13A28.79,28.79,0,0,0,6.67,35.45c.74,17.08,16.54,29.8,33.43,27.16A28.78,28.78,0,0,0,59.71,50.07a5.55,5.55,0,0,1,1-.07C61.13,50.09,62.37,51.15,61.88,52Z"/><path class="cls-1" d="M39.22,16.39A32.69,32.69,0,0,1,67.11,0a33.62,33.62,0,1,1,0,67.23c-4.65,0-11-3-11-3.45,0,0-1.06-2.41,1.54-1.92a46.43,46.43,0,0,0,8,1.14A28.79,28.79,0,1,0,41.39,18.29a5.42,5.42,0,0,1-1,.08C40,18.28,38.74,17.22,39.22,16.39Z"/></g></g></svg>