<?xml version="1.0" encoding="utf-8"?>
<!-- Generator: Adobe Illustrator 23.0.6, SVG Export Plug-In . SVG Version: 6.00 Build 0)  -->
<svg version="1.1" id="Layer_1" xmlns="http://www.w3.org/2000/svg" xmlns:xlink="http://www.w3.org/1999/xlink" x="0px" y="0px"
	 viewBox="0 0 618.4 378.7" style="enable-background:new 0 0 618.4 378.7;" xml:space="preserve">
<style type="text/css">
	.st0{fill-rule:evenodd;clip-rule:evenodd;fill:#284E80;}
</style>
<path class="st0" d="M80.9,1.9h2.9l4.8,0.9l5.7,1l15.2,3.8l20.9,3.8l11.4,2.9l12.4,2.8l13.3,1.9l13.3,3.8l14.3,1.9l14.3,3.8
	l45.7,8.5l14.3,3.8l15.2,2.9l13.3,2.9l14.3,2.9l13.3,2.9l13.3,1.9l11.4,2.9l11.4,1.9l9.5,2.8l8.6,1.9l7.6,0.9l6.7,1l4.8,1l2.8,0.9
	h1.9l12.4,2.9l11.4,1.9l9.5,2.9l7.6,1.9l7.6,2.9l5.7,1.9l7.6,3.8l2.9,1.9l4.8,4.7v1l1,0.9v0.9h40.9l3.8,1h3.8l2.9,0.9h2.9l2.9,1
	l7.6,3.8l0.9,1.9l6.7,10.5l1.9,12.4l-1.9,15.2l-4.7,14.3l-5.7,14.3l-5.7,11.4l-4.7,7.6l-1.9,2.9l-1.9,1l-4.8,1.9l-6.7,2.9l-9.5,3.8
	l-10.5,3.8l-13.3,5.7l-14.3,5.7l-16.2,5.7l-18.1,7.6l-19,6.7l-19,7.6l-41.9,17.1l-21.9,8.6l-21.9,7.6l-21.9,9.5l-22.8,8.6l-21.9,7.6
	l-20.9,9.5l-21.9,7.6l-20,7.6L137,343.5l-17.1,6.7l-16.2,5.7l-14.3,5.7l-12.4,4.8l-10.5,4.8l-8.5,2.9l-6.7,2.9l-3.8,0.9l-1,0.9
	h491.9L618.4,0H80.9V1.9z"/>
<path class="st0" d="M449.1,124.6l-2.9,1l-19,3.8h-4.8l-3.8,0.9h-3.8l-5.7,1l-2.8,0.9l-1.9,0.9l-1,1.9v1.9l1.9,1.9h3.8l3.8,0.9h9.5
	l5.7-0.9h5.7l13.3-1.9h6.7l7.6-1l6.7-0.9l5.7-1l6.6-0.9h25.7l2.8,0.9l1.9,1l1.9,2.8v3.8l-0.9,3.8l-0.9,4.8L509,156l-2.8,6.7
	l-1.9,6.7l-0.9,3.8l1.9,1.9l1.9-1l3.8-3.8l1.9-2.8l2.9-4.8l2.9-5.7l2.9-6.7l2.8-5.7l1.9-5.7l0.9-4.8v-5.7l-1.9-4.8l-2.9-2.9
	l-3.8-2.9l-4.8-1.9l-5.7-0.9l-6.6-1h-40l-0.9,1h-1l-1.9,0.9l-1.9,3.8l-1.9,0.9l-1.9,1.9L449.1,124.6L449.1,124.6z"/>
<path class="st0" d="M62.8,87.5L0,378.7l2.9-0.9l5.7-3.8l9.5-3.8l12.4-6.7l14.3-6.7l16.2-8.6l19-8.6l18.1-9.5l19-8.6l18.1-9.5
	l18.1-8.6l17.1-8.6l14.3-7.6l12.4-5.7l9.5-4.7l6.7-2.9l9.5-4.8l8.6-4.8l10.5-4.8l10.5-5.7l9.5-4.8l11.4-4.8l10.5-5.7l11.4-4.7
	l11.4-5.7l57.1-23.8l25.7-8.6l3.8-1l3.8-1.9l4.8-1l17.1-5.7l20-5.7l6.7-1l20-5.7l11.4-1.9l3.8-1l2.9-1h2.9l2.8-0.9l1.9-1.9h1v-1
	l-1.9-3.8l-2.9-0.9l-3.8-1h-3.8l-5.7-0.9h-5.7l-6.7,0.9l-11.4,1l-12.4,1.9l-13.3,2.8l-14.3,2.9l-14.3,3.8l-15.2,4.8l-14.3,4.8
	l-15.2,4.7l-14.3,5.7l-14.3,4.7l-13.3,4.8l-12.4,4.8l-11.4,5.7l-9.5,3.8l-8.6,3.8l-6.7,3.8l-36.1-112.3h230.3l0.9-4.7l-3.8-4.8
	l-5.7-2.9l-8.6-2.9l-9.5-2.9l-24.7-3.8l-39.9-2.9L62.8,87.5L62.8,87.5z"/>
</svg>
