<svg xmlns="http://www.w3.org/2000/svg" viewBox="0 0 227.87 48.13"><defs><style>.cls-1{fill:#fff;}.cls-2{fill:#53a4da;}</style></defs><title>wms-Asset 1</title><g id="Layer_2" data-name="Layer 2"><g id="Layer_1-2" data-name="Layer 1"><path class="cls-1" d="M97,22.79V45.67h10.6V20.25C103.94,21.06,100.39,21.91,97,22.79Zm36.52-7.57V45.67h10.6V13.51C140.6,14.05,137.05,14.62,133.5,15.22ZM127.09,4.15,125,12.31c6.43-.86,12.86-1.6,19.12-2.23V4.15ZM123.79,17l-3.22,12.46-2.93-11.28q-4.33.86-8.54,1.78l6.63,25.76h9.6l7.84-30.39C130,15.81,126.9,16.36,123.79,17ZM114,4.15H97V17c3.45-.73,7-1.41,10.6-2.05V14l.24.94c2.84-.5,5.72-1,8.62-1.41Z"/><path class="cls-1" d="M163.72,36.26V28.08h20.15V19.61H163.72V13h21.72V8.1c-9.1,1-21.37,2.47-34.69,4.41V45.67h35.32V36.26Zm-13-32.11v5.3c13.42-1.22,25.64-1.94,34.69-2.37V4.15Z"/><path class="cls-1" d="M188.52,4.15V6.94c7.86-.34,12.64-.43,12.64-.43s-4.8.42-12.64,1.26V14.4h13.2V45.67h12.95V14.4h13.2V4.15Z"/><path class="cls-2" d="M61.15,47.09a43.79,43.79,0,0,0,7,1A24.07,24.07,0,0,0,92.21,24.08C70.52,30.16,55.8,37.84,61.15,47.09ZM68.15,0A24.06,24.06,0,0,0,44.09,24.06c0,6.52,6.79,16.76,6.79,16.76C53.32,30.55,70,23.32,91.5,18.26A24.05,24.05,0,0,0,68.15,0Z"/><path class="cls-1" d="M29.41,27.41l11.34,3.4a20.64,20.64,0,0,1-3.6,7.9,15.58,15.58,0,0,1-6.1,4.78,22.93,22.93,0,0,1-9.27,1.62,27.12,27.12,0,0,1-11.16-2,17.65,17.65,0,0,1-7.48-6.92Q0,31.27,0,23.54,0,13.24,5.53,7.71T21.18,2.17q7.91,0,12.44,3.18t6.73,9.74L28.92,17.61a9.64,9.64,0,0,0-1.26-2.78A7.4,7.4,0,0,0,25,12.57a7.65,7.65,0,0,0-3.51-.8,7.61,7.61,0,0,0-6.74,3.51C13.56,17,13,19.74,13,23.46q0,6.9,2.12,9.46A7.27,7.27,0,0,0,21,35.48a7.26,7.26,0,0,0,5.62-2.07A12.9,12.9,0,0,0,29.41,27.41Z"/></g></g></svg>