<svg id="Layer_1" data-name="Layer 1" xmlns="http://www.w3.org/2000/svg" viewBox="0 0 500.37 184.98"><defs><style>.cls-1{fill:#52a4db;}</style></defs><title>Artboard 1</title><path class="cls-1" d="M4.69,3H44.12Q55.78,3,63,6.19a30.57,30.57,0,0,1,11.86,9.08A37.5,37.5,0,0,1,81.62,29a63.7,63.7,0,0,1,2.11,16.64q0,13.77-3.13,21.36a35.25,35.25,0,0,1-8.71,12.71,28.32,28.32,0,0,1-12,6.83,61.64,61.64,0,0,1-15.82,2.34H4.69ZM31.23,22.48V69.41h6.5q8.33,0,11.84-1.85a12.51,12.51,0,0,0,5.51-6.44q2-4.6,2-14.91,0-13.65-4.45-18.69t-14.77-5Z"/><path class="cls-1" d="M97.62,3h71.13V21.36H124.22V35h41.31V52.53H124.22V69.47H170V88.92H97.62Z"/><path class="cls-1" d="M179.71,60.5,205,58.92q.82,6.15,3.34,9.38,4.09,5.2,11.72,5.21,5.68,0,8.76-2.66a8,8,0,0,0,3.08-6.19,7.88,7.88,0,0,0-2.93-6q-2.94-2.64-13.6-5-17.46-3.93-24.9-10.43a21,21,0,0,1-7.5-16.59,22.48,22.48,0,0,1,3.84-12.5,25.38,25.38,0,0,1,11.54-9.26Q206,1.56,219.43,1.56q16.47,0,25.11,6.12t10.28,19.48l-25,1.47q-1-5.8-4.18-8.44t-8.82-2.64c-3.09,0-5.41.66-7,2a6,6,0,0,0-2.34,4.77A4.79,4.79,0,0,0,209.41,28q1.88,1.71,8.91,3.17,17.4,3.75,24.93,7.59t11,9.52A24.17,24.17,0,0,1,257.64,61a27.3,27.3,0,0,1-4.57,15.24,28.59,28.59,0,0,1-12.78,10.57q-8.21,3.61-20.68,3.61-21.92,0-30.35-8.44T179.71,60.5Z"/><path class="cls-1" d="M272.05,3h26.6v85.9h-26.6Z"/><path class="cls-1" d="M360.88,57.81V39.94h41V76.56q-11.77,8-20.83,10.93a70.76,70.76,0,0,1-21.47,2.9q-15.3,0-24.93-5.22a35.58,35.58,0,0,1-14.94-15.53A51,51,0,0,1,314.41,46q0-14.05,5.8-24.46a37.6,37.6,0,0,1,17-15.79q8.73-4.15,23.49-4.16Q375,1.56,382,4.14a27.63,27.63,0,0,1,11.72,8,35.53,35.53,0,0,1,7,13.74l-25.6,4.57A13.9,13.9,0,0,0,369.76,23a16.83,16.83,0,0,0-9.64-2.57q-8.73,0-13.92,6.06T341,45.68q0,13.95,5.24,19.92t14.62,6a27.82,27.82,0,0,0,8.5-1.29,45.94,45.94,0,0,0,9.25-4.4V57.81Z"/><path class="cls-1" d="M417.83,3h24.79L475,50.55V3h25v85.9H475L442.79,41.76V88.92h-25Z"/><path d="M0,154.4l8.79-.94q.71,7.09,3.19,11a18,18,0,0,0,7.12,6.36,22.33,22.33,0,0,0,10.43,2.4q8.32,0,12.92-4.06a13.42,13.42,0,0,0,4.6-10.56A12.85,12.85,0,0,0,45.38,152a12.53,12.53,0,0,0-5-4.65q-3.37-1.81-14.56-5.13-10-3-14.18-5.94A20.7,20.7,0,0,1,5,128.71a22.61,22.61,0,0,1-2.34-10.4q0-10.43,6.73-17T27.6,94.64a29.07,29.07,0,0,1,13.74,3.1,22.1,22.1,0,0,1,9.14,8.91A29.22,29.22,0,0,1,54,120.3l-9,.82c-.47-5.58-2.14-9.73-5-12.42s-6.91-4-12.1-4-9.3,1.18-12.07,3.54a11.49,11.49,0,0,0-4.16,9.17q0,5.22,3.05,8.08t13.7,5.82q10.43,2.88,14.65,5a23.84,23.84,0,0,1,9.73,8.65,24,24,0,0,1,3.28,12.79,26.62,26.62,0,0,1-3.45,13.43,23.25,23.25,0,0,1-9.41,9.22,30.11,30.11,0,0,1-14.32,3.16q-13.07,0-20.83-7.85T0,154.4Z"/><path d="M110.19,182.06V145.67L83.06,96.16H94.45l13.83,25.93q4.11,7.68,7.21,14.54,3.12-6.74,7.69-15.19l13.68-25.28h10.77l-28.12,49.51v36.39Z"/><path d="M174.45,154.4l8.79-.94q.7,7.09,3.19,11a18,18,0,0,0,7.12,6.36,22.33,22.33,0,0,0,10.43,2.4q8.33,0,12.92-4.06a13.42,13.42,0,0,0,4.6-10.56,12.85,12.85,0,0,0-1.67-6.63,12.53,12.53,0,0,0-5-4.65q-3.37-1.81-14.56-5.13-10-3-14.18-5.94a20.7,20.7,0,0,1-6.56-7.59,22.61,22.61,0,0,1-2.34-10.4q0-10.43,6.73-17t18.17-6.62a29.07,29.07,0,0,1,13.74,3.1,22.1,22.1,0,0,1,9.14,8.91,29.34,29.34,0,0,1,3.49,13.65l-9,.82c-.47-5.58-2.14-9.73-5-12.42s-6.9-4-12.1-4-9.3,1.18-12.07,3.54a11.49,11.49,0,0,0-4.16,9.17q0,5.22,3,8.08t13.7,5.82q10.42,2.88,14.65,5a22.44,22.44,0,0,1,13,21.44,26.62,26.62,0,0,1-3.45,13.43,23.25,23.25,0,0,1-9.41,9.22,30.11,30.11,0,0,1-14.32,3.16q-13.07,0-20.83-7.85T174.45,154.4Z"/><path d="M282.89,182.06V106.3H259.68V96.16h55.84V106.3H292.2v75.76Z"/><path d="M346.73,182.06V96.16h50.92V106.3h-41.6v26.25h39v10.13h-39v29.24h43.24v10.14Z"/><path d="M433.49,182.06V96.16h14L464.22,157l3.34,12.71q1.23-4.74,3.76-13.76l16.89-59.77h12.54v85.9h-9V110.22l-20.54,71.84h-8.37L442.45,109v73.08Z"/></svg>