<svg xmlns="http://www.w3.org/2000/svg" viewBox="0 0 1893.72 400"><defs><style>.cls-1,.cls-3{fill:#fff;}.cls-1{stroke:#231f20;stroke-miterlimit:10;}.cls-2{fill:#97bee5;}</style></defs><title>o-guide-logo.svg</title><g id="Layer_2" data-name="Layer 2"><g id="Layer_1-2" data-name="Layer 1"><path class="cls-1" d="M142.31,391s37.89,8.54,58.16,8.54c110.33,0,199.8-89.22,199.88-199.42C220.16,250.58,97.87,314.26,142.31,391ZM200.47.5C90.06.5.5,89.8.5,200,.5,254.06,57,339,57,339c20.19-85.16,159.1-145.11,337.46-187.06A199.81,199.81,0,0,0,200.47.5Z"/><path class="cls-2" d="M793.64,119.49,689.88,137.81a15.53,15.53,0,0,0-.67-1.74c34.81-6.22,69.62-12.11,104.1-17.66C793.39,118.74,793.56,119.16,793.64,119.49Z"/><path class="cls-3" d="M793.31,118.41C758.83,124,724,129.85,689.21,136.07q-6.48-18.28-21.1-28.11a60.23,60.23,0,0,0-6.81-3.9C701.59,98.51,742,93.62,781.85,89.3A159.17,159.17,0,0,1,793.31,118.41Z"/><path class="cls-3" d="M578.14,116.34a67.54,67.54,0,0,0-5.4,5.55c-8.64,10-14.54,23.47-18,40.55-38.13,8.12-75.26,16.75-110.65,25.87a212.31,212.31,0,0,1,7.8-49.09C492.82,130.76,535.1,123.14,578.14,116.34Z"/><path class="cls-2" d="M798.38,175.79V322.55Q750.65,354.77,714,366.42T627,378q-62.06,0-101-20.89-39.14-20.89-60.57-62.27T443.89,200q0-6,.25-11.69c35.39-9.12,72.52-17.75,110.65-25.87a200.11,200.11,0,0,0-3.07,36.4q0,55.85,21.27,79.85c14.12,15.92,33.89,24,59.23,24a113,113,0,0,0,34.4-5.22c10.88-3.4,23.42-9.29,37.47-17.58V247.43H632.22V175.79Z"/><path class="cls-2" d="M781.85,89.3C742,93.62,701.59,98.51,661.3,104.06c-9-4.31-19.69-6.46-32.23-6.46q-31,0-50.93,18.74c-43,6.8-85.32,14.42-126.2,22.88A174.48,174.48,0,0,1,467.4,102Q491,60.32,536.27,38.72,571.66,21.94,631.48,22q57.69,0,86.31,10.36c19,6.88,34.9,17.58,47.44,32.09A117.55,117.55,0,0,1,781.85,89.3Z"/><path class="cls-2" d="M1011.72,122.72V242.79c0,22.63-3.65,38.39-11.05,47.18s-16.78,13.1-28.33,13.1c-10.63,0-18.86-3.24-24.75-9.87s-8.73-17.66-8.73-33.33V122.72H841.74V281.51c0,32.67,7.56,57,22.68,72.63s36,23.64,62.56,23.64c19.94,0,36.72-3.57,50.43-10.54s27.25-18.9,40.71-35.48v40.38h90.22V122.72Z"/><path class="cls-2" d="M1157.44,27.86V60c39-1.91,71.86-3.23,96.62-4.06v-28Zm0,94.86V372.14h96.62V122.72Z"/><path class="cls-3" d="M1254.06,55.89v3.4c-24.84,2.49-57.74,5.89-96.62,10.2V60C1196.4,58,1229.3,56.72,1254.06,55.89Z"/><path class="cls-2" d="M1254.06,59.29V93h-96.62V69.49C1196.32,65.18,1229.22,61.78,1254.06,59.29Z"/><path class="cls-2" d="M1568.07,27.88V372.14h-90.45V335.27q-19,23.48-34.67,31.7-20.88,10.8-46.52,10.8-51.54,0-78.71-38.74t-27.18-94.17q0-62,30-94.87t76.32-32.87q22.56,0,40.95,7.51a93.29,93.29,0,0,1,32.65,22.54V27.88Zm-96.86,218.86q0-29.36-12.58-43.8a40.38,40.38,0,0,0-31.81-14.44q-16.87,0-28.26,13.86t-11.39,46.49q0,30.53,11.75,44.73T1428,307.79q18.52,0,30.86-14.32T1471.21,246.74Z"/><path class="cls-2" d="M1893.72,271.16H1700q2.61,23,12.58,34.29,14,16.2,36.56,16.2a55.43,55.43,0,0,0,27.07-7q7.83-4.46,16.85-15.73l95.2,8.69q-21.84,37.56-52.71,53.89T1747,377.77q-50.1,0-78.83-14t-47.6-44.39q-18.87-30.39-18.87-71.5,0-58.47,37.86-94.63t104.58-36.16q54.13,0,85.47,16.2a110,110,0,0,1,47.72,47q16.38,30.76,16.38,80.08Zm-98.29-45.79q-2.84-27.7-15.07-39.69t-32.17-12q-23,0-36.8,18.08-8.79,11.27-11.15,33.58Z"/></g></g></svg>