<svg xmlns="http://www.w3.org/2000/svg" viewBox="0 0 1663.29 400"><defs><style>.cls-1{fill:#fff;stroke:#231f20;stroke-miterlimit:10;}.cls-2{fill:#97bee5;}</style></defs><title>o-wms-logo</title><g id="Layer_2" data-name="Layer 2"><g id="Layer_1-2" data-name="Layer 1"><path class="cls-1" d="M200,.5C89.82.5.5,89.83.5,200c0,54,56.34,138.93,56.34,138.93,20.18-85.18,158.82-145,336.81-187C372.12,65,293.58.5,200,.5ZM142,390.93s37.84,8.57,58,8.57c110.17,0,199.47-89.29,199.49-199.45C219.71,250.56,97.6,314.19,142,390.93Z"/><path class="cls-2" d="M798.67,27.9,787.1,88.54c34.51-3.74,68.57-7.08,101.73-10.06L900.08,27.9ZM761.93,220.34,736,127.66c-55.8,9.5-111.83,19.94-166,31.3L552.79,220.6l-10.6-55.7c-31.7,6.91-62.64,14.15-92.39,21.72L491.44,372.1H596.67l60.69-216.71L718.28,372.1H823.52l59.53-267.65c-33.37,4.89-67.53,10.12-102,15.71ZM708.09,27.9H606.52L582.1,115.51C630,107.92,678.69,101.27,727,95.43Zm-192,0H414.17l25.52,113.68c30.74-6.52,62.4-12.56,94.6-18.15Z"/><path class="cls-2" d="M1170.48,27.9l-8.2,31.75c86.07-4.19,140.45-5.22,140.45-5.22S1247,59.29,1159.88,69l-43.44,168.35-41.2-158.5C1028.05,84.57,975.82,91.3,920.87,99V372.1h87.89V109.61l67.6,262.49h79.56l67.72-262.49V372.1h87.9V27.9ZM1062,27.9H920.87V75.67c53.73-4.54,104.62-8.14,150.7-11Z"/><path class="cls-2" d="M1348.19,258.23l102.11-6.34q3.32,24.66,13.51,37.57,16.57,20.9,47.37,20.89,23,0,35.43-10.68T1559,274.9q0-13.38-11.84-23.95t-55-20q-70.59-15.72-100.68-41.79-30.35-26.05-30.33-66.45,0-26.52,15.52-50.12t46.66-37.1Q1454.56,22,1508.82,22q66.57,0,101.52,24.54t41.57,78.06l-101.16,5.87q-4-23.23-16.94-33.81t-35.65-10.56q-18.73,0-28.19,7.87t-9.48,19.13q0,8.22,7.82,14.79,7.57,6.81,36,12.68,70.37,15,100.81,30.41t44.3,38.15q13.86,22.78,13.86,51a108.39,108.39,0,0,1-18.48,61q-18.48,27.94-51.65,42.39T1509.52,378q-88.61,0-122.72-33.81T1348.19,258.23Z"/></g></g></svg>