<svg xmlns="http://www.w3.org/2000/svg" viewBox="0 0 251.09 48.12"><defs><style>.cls-1{fill:#fff;}.cls-2{fill:#51a4db;}</style></defs><title>Asset 6</title><g id="Layer_2" data-name="Layer 2"><g id="Layer_1-2" data-name="Layer 1"><path class="cls-1" d="M82.39,6.39c-2.8-2-6.89-3-12.24-3a26.58,26.58,0,0,0-10.3,1.63,12.4,12.4,0,0,0-5.63,4.48,10.79,10.79,0,0,0-1.87,6,11.07,11.07,0,0,0,.1,1.54c3.86-.82,7.85-1.59,11.91-2.3a1.75,1.75,0,0,1,0-.4,2.89,2.89,0,0,1,1.14-2.3,5.18,5.18,0,0,1,3.4-.95,6.63,6.63,0,0,1,4.31,1.27,4.87,4.87,0,0,1,.79.84c4.12-.61,8.28-1.17,12.42-1.68A11.09,11.09,0,0,0,82.39,6.39Zm5,9.17-2.16.38,2.2-.13A1.87,1.87,0,0,0,87.37,15.56ZM87.11,26a12.8,12.8,0,0,0-5.34-4.61,46.39,46.39,0,0,0-9.42-3c-6.09,1.22-12,2.54-17.63,3.95A12,12,0,0,0,56,23.6c2.42,2.09,6.47,3.78,12.15,5q5.2,1.14,6.63,2.41a3.67,3.67,0,0,1-.07,5.87,6.37,6.37,0,0,1-4.27,1.29,6.87,6.87,0,0,1-5.72-2.52,9.3,9.3,0,0,1-1.63-4.53l-12.32.77a16.07,16.07,0,0,0,4.66,10.36q4.13,4.08,14.81,4.08a25.36,25.36,0,0,0,10.08-1.74,13.86,13.86,0,0,0,6.23-5.12,13,13,0,0,0,2.23-7.36A11.62,11.62,0,0,0,87.11,26Z"/><path class="cls-1" d="M90.77,4.14v6.94c14.25-1.65,28.06-2.71,39.35-3.4V4.14Zm3.61,10.25H104V45.66h12.94V14.39h13.2v-5C119.71,10.64,107.22,12.31,94.38,14.39Z"/><path class="cls-1" d="M144.55,4.14H130.17l2.3,3.4c5.27-.3,9.92-.52,13.72-.69Zm16.9,0-8.46,14-6.4-10.62c-3.64.38-8.1.86-13.14,1.46l13,19.28V45.66h13V28.27L175.75,4.14Z"/><path class="cls-1" d="M178.34,4.14h12.95v31.3h20.2V45.66H178.34Z"/><path class="cls-1" d="M215.77,4.14h34.69V13H228.75v6.6h20.14v8.46H228.75v8.19h22.34v9.4H215.77Z"/><path class="cls-2" d="M17.06,47.09a44.18,44.18,0,0,0,7,1,24.06,24.06,0,0,0,24.06-24C26.43,30.16,11.71,37.84,17.06,47.09ZM24.06,0A24.06,24.06,0,0,0,0,24.06c0,6.51,6.79,16.76,6.79,16.76,2.43-10.27,19.15-17.5,40.62-22.56A24.05,24.05,0,0,0,24.06,0Z"/></g></g></svg>