<svg xmlns="http://www.w3.org/2000/svg" viewBox="0 0 175.13 48.13"><defs><style>.cls-1{fill:#fff;}.cls-2{fill:#51a4db;}</style></defs><title>Asset 4</title><g id="Layer_2" data-name="Layer 2"><g id="Layer_1-2" data-name="Layer 1"><path class="cls-1" d="M123.33,28.67a12.7,12.7,0,0,1-2.76,6,8.41,8.41,0,0,1-11.56-.5c-1.41-1.7-2.11-4.86-2.11-9.46a23.16,23.16,0,0,1,.44-4.8c-4.63,1-9.12,2.08-13.38,3.21,0,.55,0,1.11,0,1.68q0,7.73,3.15,12.68a17.64,17.64,0,0,0,7.47,6.92,27.13,27.13,0,0,0,11.16,2A23.11,23.11,0,0,0,125,44.76a15.6,15.6,0,0,0,6.1-4.79,20.57,20.57,0,0,0,3.6-7.9Zm10.41-13.78c-3.88.65-7.78,1.33-11.65,2.05a14.23,14.23,0,0,1,.75,1.93l11.43-2.52C134.1,15.85,133.92,15.36,133.74,14.89Zm-6.2-8.28Q123,3.45,115.1,3.44,105,3.44,99.45,9a18,18,0,0,0-4.58,8.15c5.27-1.13,10.77-2.14,16.37-3a8.78,8.78,0,0,1,5.76-.89c5-.73,9.94-1.38,14.89-2A16.33,16.33,0,0,0,127.54,6.61Z"/><path class="cls-1" d="M173.46,26a12.75,12.75,0,0,0-5.35-4.6q-3.68-1.86-12.16-3.67c-2.28-.47-3.73-1-4.34-1.53a2.29,2.29,0,0,1-.94-1.78,2.9,2.9,0,0,1,1.14-2.31l0,0c-4.24.61-8.61,1.26-13,2a11,11,0,0,0-.11,1.53,10.08,10.08,0,0,0,3.66,8q3.63,3.15,12.15,5,5.19,1.14,6.63,2.41a3.79,3.79,0,0,1,1.42,2.89,3.86,3.86,0,0,1-1.5,3,6.35,6.35,0,0,1-4.27,1.29,6.86,6.86,0,0,1-5.71-2.52,9.2,9.2,0,0,1-1.63-4.54l-12.32.77a16,16,0,0,0,4.66,10.36q4.11,4.08,14.8,4.08a25.41,25.41,0,0,0,10.09-1.74,13.89,13.89,0,0,0,6.23-5.11,13.05,13.05,0,0,0,2.23-7.36A11.63,11.63,0,0,0,173.46,26Zm-1.8-16.52c-4.5.55-9.39,1.17-14.51,1.87a5.47,5.47,0,0,1,2.36,1.08,6.46,6.46,0,0,1,2,4.08l12.21-.71A15.08,15.08,0,0,0,171.66,9.49ZM168.74,6.4q-4.22-3-12.24-3c-4.37,0-7.8.54-10.31,1.63a12.29,12.29,0,0,0-5.62,4.47c-.17.26-.33.52-.47.78C151,9.19,161.39,8.38,170.37,7.81A10.45,10.45,0,0,0,168.74,6.4Z"/><path class="cls-1" d="M0,4.15H19.23a23.22,23.22,0,0,1,9.19,1.53,15,15,0,0,1,5.79,4.39,18.15,18.15,0,0,1,3.31,6.65,30.44,30.44,0,0,1,1,8q0,6.66-1.53,10.33a17.09,17.09,0,0,1-4.24,6.14A14,14,0,0,1,27,44.53a30.07,30.07,0,0,1-7.72,1.13H0Zm13,9.4V36.23h3.17c2.7,0,4.63-.29,5.77-.89a6.07,6.07,0,0,0,2.69-3.11,19.62,19.62,0,0,0,1-7.21c0-4.4-.73-7.41-2.17-9s-3.85-2.43-7.21-2.43Z"/><path class="cls-2" d="M66.47,0A24.07,24.07,0,0,0,42.4,24.06c0,6.52,6.8,16.76,6.8,16.76,2.43-10.27,19.15-17.5,40.62-22.56A24.05,24.05,0,0,0,66.47,0Zm-7,47.09a43.59,43.59,0,0,0,7,1A24.06,24.06,0,0,0,90.53,24.07C68.84,30.16,54.12,37.84,59.47,47.09Z"/></g></g></svg>