<svg xmlns="http://www.w3.org/2000/svg" viewBox="0 0 48.12 251.09"><defs><style>.cls-1{fill:#fff;}.cls-2{fill:#51a4db;}</style></defs><title>Asset 5</title><g id="Layer_2" data-name="Layer 2"><g id="Layer_1-2" data-name="Layer 1"><path class="cls-1" d="M6.39,168.7c-2,2.8-3,6.89-3,12.24a26.58,26.58,0,0,0,1.63,10.3,12.4,12.4,0,0,0,4.48,5.63,10.79,10.79,0,0,0,6,1.87,11.07,11.07,0,0,0,1.54-.1c-.82-3.86-1.59-7.85-2.3-11.91a1.75,1.75,0,0,1-.4,0,2.89,2.89,0,0,1-2.3-1.14,5.18,5.18,0,0,1-.95-3.4,6.63,6.63,0,0,1,1.27-4.31,4.87,4.87,0,0,1,.84-.79c-.61-4.12-1.17-8.28-1.68-12.42A11.09,11.09,0,0,0,6.39,168.7Zm9.17-5c.13.72.25,1.44.38,2.16l-.13-2.2ZM26,164a12.8,12.8,0,0,0-4.61,5.34,46.39,46.39,0,0,0-3,9.42c1.22,6.09,2.54,12,3.95,17.63a12,12,0,0,0,1.29-1.28c2.09-2.42,3.78-6.47,5-12.15q1.14-5.2,2.41-6.63a3.67,3.67,0,0,1,5.87.07,6.37,6.37,0,0,1,1.29,4.27,6.87,6.87,0,0,1-2.52,5.72A9.3,9.3,0,0,1,31.16,188l.77,12.32a16.07,16.07,0,0,0,10.36-4.66q4.08-4.12,4.08-14.81a25.36,25.36,0,0,0-1.74-10.08,13.86,13.86,0,0,0-5.12-6.23,13,13,0,0,0-7.36-2.23A11.62,11.62,0,0,0,26,164Z"/><path class="cls-1" d="M4.14,160.32h6.94C9.43,146.07,8.37,132.26,7.68,121H4.14Zm10.25-3.61v-9.6H45.66V134.17H14.39V121h-5C10.64,131.38,12.31,143.87,14.39,156.71Z"/><path class="cls-1" d="M4.14,106.54v14.38l3.4-2.3c-.3-5.27-.52-9.92-.69-13.72Zm0-16.9,14,8.46L7.53,104.5c.38,3.64.86,8.1,1.46,13.14l19.28-13H45.66v-13H28.27L4.14,75.34Z"/><path class="cls-1" d="M4.14,72.75v-13h31.3V39.6H45.66V72.75Z"/><path class="cls-1" d="M4.14,35.32V.63H13V22.35h6.6V2.2h8.46V22.35h8.19V0h9.4V35.32Z"/><path class="cls-2" d="M47.09,234a44.18,44.18,0,0,0,1-7,24.06,24.06,0,0,0-24-24.06C30.16,224.66,37.84,239.38,47.09,234ZM0,227a24.06,24.06,0,0,0,24.06,24.06c6.51,0,16.76-6.79,16.76-6.79-10.27-2.43-17.5-19.15-22.56-40.62A24.05,24.05,0,0,0,0,227Z"/></g></g></svg>