<svg xmlns="http://www.w3.org/2000/svg" viewBox="0 0 150.93 48.13"><defs><style>.cls-1{fill:#fff;}.cls-2{fill:#51a4db;}</style></defs><title>Asset 3</title><g id="Layer_2" data-name="Layer 2"><g id="Layer_1-2" data-name="Layer 1"><path class="cls-1" d="M50.78,17.69l6.15-.39a4.72,4.72,0,0,0,.82,2.27,3.44,3.44,0,0,0,2.86,1.26,3.17,3.17,0,0,0,2.13-.65,1.84,1.84,0,0,0,0-2.93A8.27,8.27,0,0,0,59.46,16a14.14,14.14,0,0,1-6.07-2.52,5,5,0,0,1-1.83-4,5.38,5.38,0,0,1,.94-3,6.22,6.22,0,0,1,2.81-2.24,13.34,13.34,0,0,1,5.15-.81,10.61,10.61,0,0,1,6.13,1.48,6.38,6.38,0,0,1,2.5,4.71L63,10a3.25,3.25,0,0,0-1-2,3.32,3.32,0,0,0-2.15-.63,2.59,2.59,0,0,0-1.7.47,1.45,1.45,0,0,0-.57,1.15,1.17,1.17,0,0,0,.47.9,5.36,5.36,0,0,0,2.17.76,28.09,28.09,0,0,1,6.08,1.83,6.28,6.28,0,0,1,2.67,2.31,5.76,5.76,0,0,1,.84,3.07,6.55,6.55,0,0,1-1.11,3.68A7.06,7.06,0,0,1,65.55,24a12.66,12.66,0,0,1-5,.87c-3.57,0-6-.68-7.4-2A8,8,0,0,1,50.78,17.69Z"/><path class="cls-1" d="M70.78,3.79H90.45V8.92h-6.6V24.55H77.38V8.92h-6.6Z"/><path class="cls-1" d="M90.48,3.79h7.18l4.23,7,4.22-7h7.15l-8.14,12.07v8.69H98.63V15.86Z"/><path class="cls-1" d="M114.56,3.79H121V19.44h10.11v5.11H114.56Z"/><path class="cls-1" d="M133.27,3.79h17.35V8.23H139.76v3.3h10.07v4.23H139.76v4.09h11.17v4.7H133.27Z"/><path class="cls-1" d="M56.5,40.24V38.61h4.84v5.14A8.21,8.21,0,0,1,59,45.36a5.89,5.89,0,0,1-2.45.54,5.51,5.51,0,0,1-3-.83,5.62,5.62,0,0,1-2.08-2.43,8.78,8.78,0,0,1-.77-3.83,9.47,9.47,0,0,1,.77-4,5.66,5.66,0,0,1,2-2.48,5.39,5.39,0,0,1,3-.8,5.09,5.09,0,0,1,2.2.46,4.2,4.2,0,0,1,1.55,1.32,6.09,6.09,0,0,1,.91,2.33l-1.36.45a5.16,5.16,0,0,0-.69-1.75A2.84,2.84,0,0,0,58,33.48a3.51,3.51,0,0,0-1.54-.33,3.79,3.79,0,0,0-2.15.6,4.15,4.15,0,0,0-1.45,1.87,7.82,7.82,0,0,0-.55,3.08,6.29,6.29,0,0,0,1.18,4.17,3.79,3.79,0,0,0,3,1.38,4.5,4.5,0,0,0,1.84-.42,5,5,0,0,0,1.49-1V40.24Z"/><path class="cls-1" d="M84,31.83h1.52v8a11.25,11.25,0,0,1-.4,3.3,3.81,3.81,0,0,1-1.43,2,4.51,4.51,0,0,1-2.65.74,4.22,4.22,0,0,1-3.4-1.34c-.75-.89-1.12-2.47-1.12-4.74v-8h1.51v8a8.81,8.81,0,0,0,.3,2.72,2.42,2.42,0,0,0,1,1.28,3,3,0,0,0,1.64.44,2.8,2.8,0,0,0,2.34-.91A6,6,0,0,0,84,39.81Z"/><path class="cls-1" d="M100.75,45.67V31.83h1.51V45.67Z"/><path class="cls-1" d="M117.47,45.67V31.83h4a7.46,7.46,0,0,1,2.23.25,3.73,3.73,0,0,1,1.73,1.21,6.41,6.41,0,0,1,1.15,2.21,11,11,0,0,1,.4,3.17,10.26,10.26,0,0,1-.69,4A4.81,4.81,0,0,1,124.45,45a5.23,5.23,0,0,1-2.85.69ZM119,44h2.44a4.37,4.37,0,0,0,2.24-.47A3,3,0,0,0,124.83,42a9.41,9.41,0,0,0,.54-3.37,7.91,7.91,0,0,0-.57-3.31,3.18,3.18,0,0,0-1.48-1.61,5.16,5.16,0,0,0-1.94-.27H119Z"/><path class="cls-1" d="M142.14,45.67V31.83h8.27v1.63h-6.76v4.23H150v1.63h-6.34V44h7v1.64Z"/><path class="cls-2" d="M24.06,0A24.06,24.06,0,0,0,0,24.06c0,6.52,6.8,16.76,6.8,16.76C9.23,30.54,26,23.32,47.42,18.26A24.06,24.06,0,0,0,24.06,0Zm-7,47.09a43.6,43.6,0,0,0,7,1A24.07,24.07,0,0,0,48.13,24.06C26.44,30.16,11.71,37.83,17.07,47.09Z"/></g></g></svg>