<svg xmlns="http://www.w3.org/2000/svg" viewBox="0 0 404.64 48.13"><defs><style>.cls-1{fill:#fff;}.cls-2{fill:#51a4db;}</style></defs><title>Asset 7</title><g id="Layer_2" data-name="Layer 2"><g id="Layer_1-2" data-name="Layer 1"><path class="cls-1" d="M123.79,17l-3.22,12.46-2.93-11.28q-4.33.86-8.54,1.78l6.63,25.76h9.6l7.84-30.39C130,15.81,126.9,16.36,123.79,17ZM114,4.15H97V17c3.45-.73,7-1.41,10.6-2.05V14l.24.94c2.84-.5,5.72-1,8.62-1.41ZM97,45.67h10.6V20.25c-3.64.81-7.19,1.66-10.6,2.54ZM127.09,4.15,125,12.31c6.43-.86,12.86-1.6,19.12-2.23V4.15Zm6.41,11.07V45.67h10.6V13.51C140.6,14.05,137.05,14.62,133.5,15.22Z"/><path class="cls-1" d="M150.75,4.15v5.3c13.42-1.22,25.64-1.94,34.69-2.37V4.15Zm13,32.11V28.08h20.15V19.61H163.72V13h21.72V8.1c-9.1,1-21.37,2.47-34.69,4.41V45.67h35.32V36.26Z"/><path class="cls-1" d="M188.52,4.15V6.94c7.86-.34,12.64-.43,12.64-.43s-4.8.42-12.64,1.26V14.4h13.2V45.67h12.95V14.4h13.2V4.15Z"/><path class="cls-1" d="M252.79,30.63V22h20v17.7A40.9,40.9,0,0,1,262.64,45a34.65,34.65,0,0,1-10.47,1.4q-7.47,0-12.16-2.52a17.27,17.27,0,0,1-7.29-7.5,24.42,24.42,0,0,1-2.59-11.44A23.8,23.8,0,0,1,233,13.08a18.3,18.3,0,0,1,8.29-7.63q4.26-2,11.46-2,6.94,0,10.39,1.25a13.52,13.52,0,0,1,5.71,3.86,17.19,17.19,0,0,1,3.42,6.64L259.74,17.4a6.7,6.7,0,0,0-2.62-3.59,8.14,8.14,0,0,0-4.7-1.25,8.53,8.53,0,0,0-6.79,2.93c-1.68,2-2.52,5-2.52,9.28q0,6.74,2.55,9.62a9,9,0,0,0,7.13,2.89,13.58,13.58,0,0,0,4.15-.62,22.68,22.68,0,0,0,4.51-2.12V30.63Z"/><path class="cls-1" d="M310.11,45.67H299.25V40.79a15.85,15.85,0,0,1-4.9,4.28,13.13,13.13,0,0,1-6.07,1.28,9.93,9.93,0,0,1-7.53-2.85Q278,40.65,278,34.73V15.59h11.69V32.13a6.06,6.06,0,0,0,1.05,4,3.8,3.8,0,0,0,3,1.19,4.25,4.25,0,0,0,3.41-1.59q1.34-1.57,1.33-5.69V15.59h11.63Z"/><path class="cls-1" d="M316,4.15h11.63V12H316Zm0,11.44h11.63V45.67H316Z"/><path class="cls-1" d="M365.45,4.15V45.67H354.56V41.22A14.71,14.71,0,0,1,350.39,45a12,12,0,0,1-5.6,1.31,10.85,10.85,0,0,1-9.48-4.68A19.29,19.29,0,0,1,332,30.32q0-7.49,3.62-11.45a11.87,11.87,0,0,1,9.18-4,12.81,12.81,0,0,1,4.93.91,11.19,11.19,0,0,1,3.93,2.71V4.15ZM353.79,30.54a7.87,7.87,0,0,0-1.52-5.28,4.85,4.85,0,0,0-3.83-1.74,4.25,4.25,0,0,0-3.4,1.67q-1.37,1.66-1.37,5.61,0,3.68,1.41,5.39a4.41,4.41,0,0,0,3.51,1.72,4.7,4.7,0,0,0,3.71-1.73Q353.79,34.46,353.79,30.54Z"/><path class="cls-1" d="M404.64,33.49H381.33a7.39,7.39,0,0,0,1.51,4.13,5.51,5.51,0,0,0,4.4,2,6.75,6.75,0,0,0,3.26-.85,7.68,7.68,0,0,0,2-1.9L404,37.88a16.43,16.43,0,0,1-6.35,6.5q-3.7,2-10.66,2a22,22,0,0,1-9.48-1.69,13.83,13.83,0,0,1-5.73-5.35,16,16,0,0,1-2.27-8.63,15.06,15.06,0,0,1,4.55-11.41q4.56-4.36,12.59-4.36,6.51,0,10.29,1.95a13.26,13.26,0,0,1,5.74,5.67,20.47,20.47,0,0,1,2,9.66ZM392.81,28A7.68,7.68,0,0,0,391,23.18a5.71,5.71,0,0,0-8.3.74,7.84,7.84,0,0,0-1.35,4Z"/><path class="cls-2" d="M61.15,47.09a43.79,43.79,0,0,0,7,1A24.07,24.07,0,0,0,92.21,24.08C70.52,30.16,55.8,37.84,61.15,47.09ZM68.15,0A24.06,24.06,0,0,0,44.09,24.06c0,6.52,6.79,16.76,6.79,16.76C53.32,30.55,70,23.32,91.5,18.26A24.05,24.05,0,0,0,68.15,0Zm65,15.28.33-.06V14Z"/><path class="cls-1" d="M29.41,27.41l11.34,3.4a20.64,20.64,0,0,1-3.6,7.9,15.58,15.58,0,0,1-6.1,4.78,22.93,22.93,0,0,1-9.27,1.62,27.12,27.12,0,0,1-11.16-2,17.65,17.65,0,0,1-7.48-6.92Q0,31.27,0,23.54,0,13.24,5.53,7.71T21.18,2.17q7.91,0,12.44,3.18t6.73,9.74L28.92,17.61a9.64,9.64,0,0,0-1.26-2.78A7.4,7.4,0,0,0,25,12.57a7.62,7.62,0,0,0-3.51-.8,7.61,7.61,0,0,0-6.74,3.51C13.56,17,13,19.74,13,23.46q0,6.9,2.12,9.46A7.27,7.27,0,0,0,21,35.48a7.26,7.26,0,0,0,5.62-2.07A12.9,12.9,0,0,0,29.41,27.41Z"/></g></g></svg>