<svg xmlns="http://www.w3.org/2000/svg" viewBox="0 0 404.63 48.13"><defs><style>.cls-1{fill:#fff;}.cls-2{fill:#97bfe6;}</style></defs><title>comet-guide-Logo_1</title><g id="Layer_2" data-name="Layer 2"><g id="Layer_1-2" data-name="Layer 1"><path class="cls-1" d="M29.41,27.83l11.34,3.4a20.5,20.5,0,0,1-3.6,7.9,15.6,15.6,0,0,1-6.1,4.79,22.94,22.94,0,0,1-9.27,1.61,27.13,27.13,0,0,1-11.16-2,17.65,17.65,0,0,1-7.48-6.92Q0,31.7,0,24,0,13.67,5.53,8.13T21.18,2.6q7.91,0,12.44,3.17t6.73,9.75L28.92,18a9.64,9.64,0,0,0-1.26-2.78A7.43,7.43,0,0,0,25,13a7.77,7.77,0,0,0-3.51-.79,7.61,7.61,0,0,0-6.74,3.51C13.56,17.44,13,20.17,13,23.88c0,4.61.71,7.76,2.12,9.47A7.3,7.3,0,0,0,21,35.91a7.26,7.26,0,0,0,5.62-2.07A12.89,12.89,0,0,0,29.41,27.83Z"/><path class="cls-1" d="M114,3.31H97V16.36q5.2-1,10.61-1.94V13.17l.31,1.19c2.85-.47,5.74-.91,8.63-1.33ZM97,44.83h10.61V19.51C104,20.29,100.4,21.1,97,21.94Zm26.75-28.49-3.16,12.23-2.88-11.1q-4.32.83-8.55,1.71l6.6,25.65h9.6l7.76-30.1C130,15.25,126.85,15.79,123.72,16.34Zm3.36-13-2.21,8.58c6.5-.83,13-1.53,19.23-2.13V3.31Zm6.41,11.36V44.83H144.1V13C140.61,13.53,137.06,14.08,133.49,14.67Z"/><path class="cls-1" d="M150.75,3.31V9.16C164.55,8,176.87,7.3,185.44,6.93V3.31Zm13,32.12V27.24h20.15V18.77H163.72v-6.6h21.72V7.74c-8.62.91-21,2.35-34.69,4.29v32.8h35.32v-9.4Z"/><path class="cls-1" d="M227.87,3.31V13.56H214.66V44.83H201.72V13.56h-13.2V7.42c5.85-.61,9.31-.91,9.31-.91s-3.45.07-9.31.3V3.31Z"/><path class="cls-2" d="M252.78,29.79V21.15h20v17.7a40.9,40.9,0,0,1-10.16,5.28,34.65,34.65,0,0,1-10.48,1.41Q244.7,45.54,240,43a17.35,17.35,0,0,1-7.29-7.51,24.42,24.42,0,0,1-2.59-11.44A23.72,23.72,0,0,1,233,12.24a18.3,18.3,0,0,1,8.29-7.63q4.26-2,11.46-2,6.94,0,10.38,1.25a13.49,13.49,0,0,1,5.72,3.86,17.15,17.15,0,0,1,3.41,6.65l-12.48,2.2A6.74,6.74,0,0,0,257.11,13a8.22,8.22,0,0,0-4.7-1.25,8.5,8.5,0,0,0-6.78,2.93q-2.53,2.94-2.53,9.28,0,6.74,2.55,9.63a9,9,0,0,0,7.13,2.88,13.58,13.58,0,0,0,4.15-.62,22.13,22.13,0,0,0,4.51-2.12V29.79Z"/><path class="cls-2" d="M310.1,44.83H299.24V40a15.94,15.94,0,0,1-4.9,4.27,13.13,13.13,0,0,1-6.07,1.28,9.93,9.93,0,0,1-7.53-2.85Q278,39.81,278,33.9V14.75H289.7V31.29a6.06,6.06,0,0,0,1.05,4,3.77,3.77,0,0,0,3,1.19,4.27,4.27,0,0,0,3.41-1.58q1.33-1.59,1.33-5.7V14.75H310.1Z"/><path class="cls-2" d="M316,3.31h11.63v7.84H316Zm0,11.44h11.63V44.83H316Z"/><path class="cls-2" d="M365.44,3.31V44.83H354.55V40.38a14.71,14.71,0,0,1-4.17,3.82,12,12,0,0,1-5.61,1.31,10.84,10.84,0,0,1-9.47-4.68A19.29,19.29,0,0,1,332,29.48Q332,22,335.64,18a11.88,11.88,0,0,1,9.19-4,12.81,12.81,0,0,1,4.93.91,11.08,11.08,0,0,1,3.93,2.72V3.31ZM353.78,29.7a7.87,7.87,0,0,0-1.52-5.28,4.85,4.85,0,0,0-3.83-1.74,4.25,4.25,0,0,0-3.4,1.67Q343.67,26,343.66,30q0,3.67,1.41,5.39a4.37,4.37,0,0,0,3.51,1.72,4.7,4.7,0,0,0,3.71-1.73Q353.78,33.61,353.78,29.7Z"/><path class="cls-2" d="M404.63,32.65H381.32a7.32,7.32,0,0,0,1.51,4.13,5.51,5.51,0,0,0,4.4,2,6.64,6.64,0,0,0,3.26-.85,7.68,7.68,0,0,0,2-1.9L404,37a16.36,16.36,0,0,1-6.35,6.5q-3.7,2-10.66,2a22,22,0,0,1-9.48-1.69,13.83,13.83,0,0,1-5.73-5.35,16,16,0,0,1-2.28-8.62A15.09,15.09,0,0,1,374,18.43q4.56-4.35,12.59-4.36,6.51,0,10.29,2a13.24,13.24,0,0,1,5.74,5.66,20.47,20.47,0,0,1,2,9.66ZM392.8,27.13A7.68,7.68,0,0,0,391,22.34a5.73,5.73,0,0,0-8.3.74,7.84,7.84,0,0,0-1.35,4.05Z"/><path class="cls-2" d="M57.82,47.1a44,44,0,0,0,7,1A24.06,24.06,0,0,0,88.88,24.07C67.19,30.17,52.47,37.85,57.82,47.1Zm7-47.1A24.07,24.07,0,0,0,40.75,24.07c0,6.51,6.8,16.76,6.8,16.76C50,30.56,66.7,23.33,88.17,18.27A24.07,24.07,0,0,0,64.82,0Z"/></g></g></svg>