<svg id="Layer_1" data-name="Layer 1" xmlns="http://www.w3.org/2000/svg" viewBox="0 0 453.54 462.54"><defs><style>.cls-1,.cls-3{fill:#fff;}.cls-2{fill:#231f20;}.cls-3,.cls-4{stroke:#231f20;stroke-linejoin:round;stroke-width:20px;}.cls-4{fill:none;}</style></defs><title>design System</title><g id="Pencil"><polygon class="cls-1" points="201.68 236.09 251.87 236.09 226.77 261.19 201.68 236.09"/><path class="cls-2" d="M244.07,240.84l-13,13-13-13h26m24.15-10H193.89L231.05,268l37.17-37.17Z" transform="translate(-4.28 0.25)"/><rect class="cls-1" x="194.61" y="42.17" width="27.16" height="183.92"/><path class="cls-2" d="M221.05,46.92V220.84H203.89V46.92h17.16m10-10H193.89V230.84h37.16V36.92Z" transform="translate(-4.28 0.25)"/><rect class="cls-1" x="231.77" y="42.17" width="27.17" height="183.92"/><path class="cls-2" d="M258.22,46.92V220.84H241.05V46.92h17.17m10-10H231.05V230.84h37.17V36.92Z" transform="translate(-4.28 0.25)"/><path class="cls-1" d="M199.27,31.92A32.22,32.22,0,0,1,231.05,4.75a32.41,32.41,0,0,1,31.78,27.17Z" transform="translate(-4.28 0.25)"/><path class="cls-2" d="M231.05,9.75a27,27,0,0,1,19.16,8,27.42,27.42,0,0,1,6.08,9.16H205.81a27.42,27.42,0,0,1,6.08-9.16,27,27,0,0,1,19.16-8h0m0-10h0a37.34,37.34,0,0,0-37.16,37.17h74.33A37.35,37.35,0,0,0,231.05-.25Z" transform="translate(-4.28 0.25)"/></g><line class="cls-3" x1="366.62" y1="452.54" x2="86.93" y2="452.54"/><line class="cls-3" x1="226.77" y1="452.54" x2="226.77" y2="404.43"/><polyline class="cls-4" points="271.12 150.7 443.54 150.7 443.54 385.82 10 385.82 10 150.7 182.44 150.7"/></svg>