<svg xmlns="http://www.w3.org/2000/svg" viewBox="0 0 150.94 48.13"><defs><style>.cls-1{fill:#fff;}.cls-2{fill:#51a4db;}</style></defs><title>Asset 1</title><g id="Layer_2" data-name="Layer 2"><g id="Layer_1-2" data-name="Layer 1"><path class="cls-1" d="M66.27,12.42a28.09,28.09,0,0,0-6.08-1.83A5.36,5.36,0,0,1,58,9.83a1.17,1.17,0,0,1-.47-.9,1.45,1.45,0,0,1,.57-1.15,2.59,2.59,0,0,1,1.7-.47A3.32,3.32,0,0,1,62,7.94a3.25,3.25,0,0,1,1,2l6.1-.35a6.38,6.38,0,0,0-2.5-4.71,10.61,10.61,0,0,0-6.13-1.48,13.34,13.34,0,0,0-5.15.81A6.22,6.22,0,0,0,52.5,6.49a5.38,5.38,0,0,0-.94,3,5,5,0,0,0,1.83,4,12.86,12.86,0,0,0,5.33,2.34c3.21-.61,6.48-1.19,9.79-1.73A6.81,6.81,0,0,0,66.27,12.42Zm-4.09,8.11h0a3.24,3.24,0,0,1-1.26.29c-2.7.62-5.34,1.27-7.91,1.93l.11.12c1.37,1.36,3.83,2,7.4,2a12.66,12.66,0,0,0,5-.87,7.06,7.06,0,0,0,3.12-2.56,6.59,6.59,0,0,0,1-2.58C67.15,19.43,64.64,20,62.18,20.53Z"/><path class="cls-1" d="M70.78,3.79V8.92h6.6v3.87c2.16-.3,4.31-.59,6.47-.87v-3h6.6V3.79Zm6.6,13.58v7.18h6.47V16.18C81.69,16.57,79.53,17,77.38,17.37Z"/><path class="cls-1" d="M106.11,3.79l-3.65,6.06q3.65-.36,7.17-.66l3.64-5.4ZM97.32,13.93l1.31,1.93v8.69h6.49V15.86l2.35-3.47C104.15,12.87,100.75,13.38,97.32,13.93Zm.34-10.14H90.48l4.6,6.81q3.18-.35,6.3-.65Z"/><path class="cls-1" d="M121,19.44V10.53c-2.11.27-4.26.56-6.47.86V24.55h16.58V19.44ZM114.56,3.79v5c2.2-.18,4.37-.34,6.47-.49V3.79Z"/><path class="cls-1" d="M133.27,3.79V7.51c7.19-.42,13.18-.67,17.35-.81V3.79Zm6.87,4.44h10.48V7.13C147.86,7.4,144.3,7.77,140.14,8.23Zm-.38,11.62V15.76h10.07V11.53H139.76V8.27L133.27,9V24.55h17.67v-4.7Z"/><path class="cls-1" d="M56.5,40.24V38.61h4.84v5.14A8.21,8.21,0,0,1,59,45.36a5.89,5.89,0,0,1-2.45.54,5.43,5.43,0,0,1-3-.83,5.62,5.62,0,0,1-2.08-2.43,8.78,8.78,0,0,1-.77-3.83,9.47,9.47,0,0,1,.77-4,5.66,5.66,0,0,1,2-2.48,5.39,5.39,0,0,1,3-.8,5.09,5.09,0,0,1,2.2.46,4.2,4.2,0,0,1,1.55,1.32,6.09,6.09,0,0,1,.91,2.33l-1.36.45a5.16,5.16,0,0,0-.69-1.75A2.84,2.84,0,0,0,58,33.48a3.51,3.51,0,0,0-1.54-.33,3.79,3.79,0,0,0-2.15.6,4.15,4.15,0,0,0-1.45,1.87,7.82,7.82,0,0,0-.55,3.08,6.29,6.29,0,0,0,1.18,4.17,3.79,3.79,0,0,0,3,1.38,4.5,4.5,0,0,0,1.84-.42,4.87,4.87,0,0,0,1.49-1V40.24Z"/><path class="cls-1" d="M84,31.83h1.52v8a11.25,11.25,0,0,1-.4,3.3,3.81,3.81,0,0,1-1.43,2,4.51,4.51,0,0,1-2.65.74,4.19,4.19,0,0,1-3.4-1.34c-.75-.89-1.12-2.47-1.12-4.74v-8h1.51v8a8.81,8.81,0,0,0,.3,2.72,2.42,2.42,0,0,0,1,1.28,3,3,0,0,0,1.64.44,2.8,2.8,0,0,0,2.34-.91A6,6,0,0,0,84,39.81Z"/><path class="cls-1" d="M100.75,45.67V31.83h1.51V45.67Z"/><path class="cls-1" d="M117.47,45.67V31.83h4a7.46,7.46,0,0,1,2.23.25,3.8,3.8,0,0,1,1.73,1.21,6.41,6.41,0,0,1,1.15,2.21,11,11,0,0,1,.4,3.17,10.26,10.26,0,0,1-.69,4A4.81,4.81,0,0,1,124.45,45a5.23,5.23,0,0,1-2.85.69ZM119,44h2.44a4.37,4.37,0,0,0,2.24-.47A3,3,0,0,0,124.83,42a9.41,9.41,0,0,0,.54-3.37,7.91,7.91,0,0,0-.57-3.31,3.18,3.18,0,0,0-1.48-1.61,5.16,5.16,0,0,0-1.94-.27H119Z"/><path class="cls-1" d="M142.14,45.67V31.83h8.27v1.63h-6.76v4.23H150v1.63h-6.34V44h7v1.64Z"/><path class="cls-2" d="M17.07,47.09a43.6,43.6,0,0,0,7,1A24.07,24.07,0,0,0,48.13,24.06C26.44,30.16,11.71,37.83,17.07,47.09ZM24.06,0A24.06,24.06,0,0,0,0,24.06c0,6.52,6.8,16.76,6.8,16.76C9.23,30.54,26,23.32,47.42,18.26A24.06,24.06,0,0,0,24.06,0Z"/></g></g></svg>