<?xml version="1.0" ?><svg baseProfile="tiny" id="Layer_1" version="1.2" viewBox="0 0 512 512" xml:space="preserve" xmlns="http://www.w3.org/2000/svg" xmlns:xlink="http://www.w3.org/1999/xlink"><g id="XMLID_220_"><g id="XMLID_257_"><path d="M268,419.3H244c-20.3,0-36.8-16.5-36.8-36.8v-53.3c0-20.3,16.5-36.8,36.8-36.8H268    c20.3,0,36.8,16.5,36.8,36.8v53.3C304.8,402.8,288.3,419.3,268,419.3z" fill="#EDBB98" id="XMLID_260_"/><path d="M304.8,381.7v0.9c0,20.3-16.5,36.8-36.8,36.8H244c-20.3,0-36.8-16.5-36.8-36.8v-0.9    c-76.7,16.6-136.3,67.6-152.3,129.9c-0.2,0.9,101.5,0,201.1,0c99.6,0,201.3,0.9,201.1,0C441.1,449.3,381.4,398.3,304.8,381.7z" fill="#9E005D" id="XMLID_259_"/><path d="M266.1,438.5" fill="#110102" id="XMLID_258_"/></g><path d="M165.8,277c0,0,11.6,65-22.2,78.9c0,0-93.4,74.4-47.2,131.3c0,0,23.1-28.3,49.8-40.4   c0,0,50.9-27.5,61.1-64.3l10.6-59.6L165.8,277z" fill="#3F2820" id="XMLID_256_"/><ellipse cx="380.5" cy="226.3" fill="#F4C5A2" id="XMLID_255_" rx="28.1" ry="38.9" transform="matrix(0.9772 0.2124 -0.2124 0.9772 56.7515 -75.6563)"/><ellipse cx="131.5" cy="228.8" fill="#F4C5A2" id="XMLID_254_" rx="28.1" ry="38.9" transform="matrix(-0.9772 0.2124 -0.2124 -0.9772 308.6233 424.4786)"/><ellipse cx="256.3" cy="223.9" fill="#F4C5A2" id="XMLID_253_" rx="120.8" ry="141"/><g id="XMLID_242_"><g id="XMLID_248_"><path d="M276.3,190c2.8-4.9,7.2-8.6,12.1-11.4c4.9-2.7,10.6-4.3,16.5-4.5     c2.9-0.2,5.9,0.3,8.7,0.8c2.8,0.9,5.6,1.6,8.1,3.2c2.6,1.3,4.8,3.2,6.8,5.1c1.1,0.9,1.9,2.1,2.7,3.2c0.8,1.1,1.6,2.3,2.3,3.5     c-2.9-0.6-5.2-1.6-7.7-2.2c-2.5-0.6-4.7-1.4-7.1-1.7c-2.3-0.6-4.6-0.7-6.8-1.1c-2.3,0-4.5-0.3-6.7-0.1c-4.5,0.1-9.1,0.7-13.8,1.6     C286.6,187.4,281.8,188.6,276.3,190z" fill="#333333" id="XMLID_252_"/><g id="XMLID_249_"><circle cx="306.2" cy="209.3" fill="#333333" id="XMLID_251_" r="14.5"/><circle cx="308.5" cy="198.7" fill="#F2F2F2" id="XMLID_250_" r="3.6"/></g></g><g id="XMLID_243_"><path d="M179.6,190c2.8-4.9,7.2-8.6,12.1-11.4c4.9-2.7,10.6-4.3,16.5-4.5     c2.9-0.2,5.9,0.3,8.7,0.8c2.8,0.9,5.6,1.6,8.1,3.2c2.6,1.3,4.8,3.2,6.8,5.1c1.1,0.9,1.9,2.1,2.7,3.2c0.8,1.1,1.6,2.3,2.3,3.5     c-2.9-0.6-5.2-1.6-7.7-2.2c-2.5-0.6-4.7-1.4-7.1-1.7c-2.3-0.6-4.6-0.7-6.8-1.1c-2.3,0-4.5-0.3-6.7-0.1c-4.5,0.1-9.1,0.7-13.8,1.6     C189.9,187.4,185,188.6,179.6,190z" fill="#333333" id="XMLID_247_"/><g id="XMLID_244_"><circle cx="203.3" cy="209.3" fill="#333333" id="XMLID_246_" r="14.5"/><circle cx="205.7" cy="198.7" fill="#F2F2F2" id="XMLID_245_" r="3.6"/></g></g></g><path d="M234.3,262.8c3.9,1,7.4,1.9,10.7,2.6c3.4,0.7,6.6,1,9.8,1c3.2,0,6.4-0.2,9.7-1   c1.7-0.2,3.3-0.8,5.1-1.2c1.8-0.4,3.5-1.1,5.6-1.5c-1,1.7-2.2,3.4-3.6,4.9c-1.5,1.3-3,2.8-4.9,3.7c-3.5,2.1-7.8,3.1-12,3.1   c-4.2,0-8.4-1.2-11.9-3.2C239.3,269.2,236.2,266.5,234.3,262.8z" fill="#F4A56E" id="XMLID_241_"/><ellipse cx="327.2" cy="258" fill="#F9B39D" id="XMLID_240_" rx="20.8" ry="16.4"/><ellipse cx="191.5" cy="260.6" fill="#F9B39D" id="XMLID_239_" rx="20.8" ry="16.4"/><g id="XMLID_235_"><path d="M305.7,250c-21.1,0-38.2-17.1-38.2-38.2s17.1-38.2,38.2-38.2c21.1,0,38.2,17.1,38.2,38.2    S326.7,250,305.7,250z M305.7,178.9c-18.1,0-32.9,14.7-32.9,32.9s14.7,32.9,32.9,32.9c18.1,0,32.9-14.7,32.9-32.9    S323.8,178.9,305.7,178.9z" fill="#1A1A1A" id="XMLID_236_"/></g><g id="XMLID_231_"><path d="M208.2,250c-21.1,0-38.2-17.1-38.2-38.2s17.1-38.2,38.2-38.2c21.1,0,38.2,17.1,38.2,38.2    S229.2,250,208.2,250z M208.2,178.9c-18.1,0-32.9,14.7-32.9,32.9s14.7,32.9,32.9,32.9s32.9-14.7,32.9-32.9    S226.3,178.9,208.2,178.9z" fill="#1A1A1A" id="XMLID_232_"/></g><g id="XMLID_229_"><path d="M271,200.8c-9.1,0.2-21.7,0.3-28,0.3v5.4c1.1,0,2.3,0,3.7,0c5.2,0,12.9-0.1,24.4-0.4    L271,200.8z" fill="#1A1A1A" id="XMLID_230_"/></g><g id="XMLID_227_"><polygon fill="#1A1A1A" id="XMLID_228_" points="367.7,207.2 333.2,193.5 335.6,188.3 370.6,202.1   "/></g><g id="XMLID_225_"><polygon fill="#1A1A1A" id="XMLID_226_" points="146.5,209.4 144,204.1 178.9,187.6 181.1,193.1   "/></g><g id="XMLID_223_"><path d="M302.1,298.5c-0.9-0.9-31.9,15.7-48.4,15.7c-17.4,0-48.4-15.7-48.4-15.7    c-1.1,1,34.2,24.4,48.4,24.4C268.8,322.9,302.1,298.5,302.1,298.5z" fill="#F4A792" id="XMLID_224_"/></g><ellipse cx="253.6" cy="38.1" fill="#3F2820" id="XMLID_222_" rx="61.7" ry="38.1"/><path d="M156,183.6l54.3-1.2l1.9-47.5l22.1,49h22c0,0-5.2-36.6-1.6-55.3l20.4,55.3l87.3-4.5   c0,0,8,19.5-4.4,36.4c0,0,5.2-2.4,9.6-8.7c0.4-0.8,0.9-1.5,1.4-2.4c0.5-0.9,1-1.7,1.6-2.7c1.5-3.2,2.6-7,3.1-11.6   c0,0,14.8-5.3,26.2,4.2c0,0,19.7-132.8-95.2-152.4c0,0-207.5-44.8-194,156.4c0,0,23-28.2,38.2,17.1l10.7,10.4L156,183.6z" fill="#3F2820" id="XMLID_221_"/></g></svg>