<?xml version="1.0" ?><svg baseProfile="tiny" id="Layer_1" version="1.2" viewBox="0 0 512 512" xml:space="preserve" xmlns="http://www.w3.org/2000/svg" xmlns:xlink="http://www.w3.org/1999/xlink"><g id="XMLID_20_"><g id="XMLID_41_"><path d="M268.2,417.6h-24.4c-20.7,0-37.5-16.8-37.5-37.5v-54.3c0-20.7,16.8-37.5,37.5-37.5h24.4    c20.7,0,37.5,16.8,37.5,37.5v54.3C305.7,400.8,288.9,417.6,268.2,417.6z" fill="#EDBB98" id="XMLID_18_"/><path d="M305.7,379.3v0.9c0,20.7-16.8,37.5-37.5,37.5h-24.4c-20.7,0-37.5-16.8-37.5-37.5v-0.9    c-78.1,16.9-138.9,68.9-155.2,132.3c-0.2,0.9,103.4,0,204.8,0c101.4,0,205.1,0.9,204.8,0C444.5,448.1,383.7,396.1,305.7,379.3z" fill="#2B00FF" id="XMLID_17_"/><path d="M310.9,511.7c15.2,0,30.1,0.1,44.1,0.1L377,407c-13.8-8.2-28.9-15.1-45-20.5L310.9,511.7z" fill="#F2F2F2" id="XMLID_16_"/><path d="M157,511.8c14,0,28.8-0.1,44.1-0.1L180,386.5c-16.1,5.4-31.1,12.3-45,20.5L157,511.8z" fill="#F2F2F2" id="XMLID_15_"/></g><g id="XMLID_21_"><ellipse cx="256.6" cy="218.8" fill="#F4C5A2" id="XMLID_14_" rx="123.1" ry="143.6"/><g id="XMLID_29_"><g id="XMLID_35_"><path d="M279.9,181.7c2.8-5,7.3-8.8,12.3-11.6c5-2.8,10.8-4.4,16.8-4.5c3-0.2,6,0.3,8.9,0.8      c2.9,0.9,5.7,1.7,8.2,3.3c2.6,1.3,4.9,3.2,6.9,5.2c1.1,0.9,1.9,2.1,2.8,3.3c0.8,1.2,1.6,2.3,2.3,3.6c-2.9-0.6-5.3-1.7-7.8-2.3      c-2.5-0.6-4.8-1.4-7.2-1.7c-2.3-0.6-4.7-0.7-6.9-1.1c-2.3,0-4.6-0.3-6.9-0.1c-4.6,0.1-9.2,0.7-14,1.6      C290.3,179,285.4,180.3,279.9,181.7z" fill="#333333" id="XMLID_13_"/><g id="XMLID_36_"><circle cx="309" cy="204" fill="#333333" id="XMLID_12_" r="14.8"/><circle cx="311.4" cy="193.2" fill="#F2F2F2" id="XMLID_11_" r="3.7"/></g></g><g id="XMLID_30_"><path d="M175.1,181.7c2.8-5,7.3-8.8,12.3-11.6c5-2.8,10.8-4.4,16.8-4.5c3-0.2,6,0.3,8.9,0.8      c2.9,0.9,5.7,1.7,8.2,3.3c2.6,1.3,4.9,3.2,6.9,5.2c1.1,0.9,1.9,2.1,2.8,3.3c0.8,1.2,1.6,2.3,2.3,3.6c-2.9-0.6-5.3-1.7-7.8-2.3      c-2.5-0.6-4.8-1.4-7.2-1.7c-2.3-0.6-4.7-0.7-6.9-1.1c-2.3,0-4.6-0.3-6.9-0.1c-4.6,0.1-9.2,0.7-14,1.6      C185.6,179,180.7,180.3,175.1,181.7z" fill="#333333" id="XMLID_10_"/><g id="XMLID_31_"><circle cx="204.2" cy="204" fill="#333333" id="XMLID_9_" r="14.8"/><circle cx="206.7" cy="193.2" fill="#F2F2F2" id="XMLID_8_" r="3.7"/></g></g></g><path d="M211.7,302.6c7.4-3.2,14.8-5.6,22.3-7.2c7.5-1.5,15-2.5,22.5-2.3c1.9-0.1,3.8,0.2,5.6,0.3    c1.9,0.1,3.8,0.2,5.6,0.5c1.9,0.3,3.7,0.6,5.6,0.8l5.6,1.2l2.8,0.6c0.9,0.2,1.8,0.6,2.8,0.8l5.6,1.6c3.8,1.1,7.4,2.7,11.4,3.7    c-3-2.6-6.3-5.2-9.7-7.4c-3.6-1.9-7.1-4.2-11-5.5c-1.9-0.7-3.9-1.5-5.8-2.1c-2-0.5-4-0.9-6.1-1.4c-2-0.5-4.1-0.7-6.2-0.9    c-2.1-0.2-4.2-0.5-6.2-0.4c-8.4-0.2-16.7,1.4-24.4,4.4C224.4,292.2,217.2,296.6,211.7,302.6z" fill="#F4A56E" id="XMLID_7_"/><path d="M235.8,253c4,1.1,7.5,2,10.9,2.6c3.4,0.7,6.7,1,10,1.1c3.2,0,6.5-0.2,9.8-1    c1.7-0.2,3.4-0.8,5.2-1.2c1.8-0.4,3.6-1.2,5.7-1.5c-1,1.8-2.2,3.5-3.6,4.9c-1.5,1.4-3.1,2.8-4.9,3.8c-3.6,2.2-8,3.2-12.3,3.1    c-4.3,0-8.5-1.2-12.2-3.2C240.8,259.6,237.7,256.7,235.8,253z" fill="#F4A56E" id="XMLID_6_"/><path d="M102.5,204c0,0-31.9-30.4,6.2-55c0,0-30.8-40.8,7.3-48c0,0-6.8-61.6,53.7-61.6    c0,0,32.4-66.2,89.5-26.8c0,0,75.2-38.5,87.9,23.1c0,0,54.4,6.3,39.9,48c0,0,57.1,1.3,25.4,49.8c0,0,23.6,48.1-9.6,63.3    c0,0-33,8.6-43.9-23.3c0,0-20.7-70.2-68.9-74.6c0,0-27.8,12.8-33.4,12.8c0,0-20.1,2.7-35.5-7.3c0,0-62.8,4.2-82.1,88.6    C139,193.2,118.6,182.1,102.5,204z" fill="#3F2820" id="XMLID_5_"/><ellipse cx="383.1" cy="221.3" fill="#F4C5A2" id="XMLID_4_" rx="28.6" ry="39.6" transform="matrix(0.9772 0.2124 -0.2124 0.9772 55.7399 -76.3208)"/><ellipse cx="129.5" cy="223.8" fill="#F4C5A2" id="XMLID_3_" rx="28.6" ry="39.6" transform="matrix(-0.9772 0.2124 -0.2124 -0.9772 303.5852 415.0321)"/><polygon fill="#3F2820" id="XMLID_2_" points="358.9,173.6 347.5,243.2 383.1,181.7   "/><polygon fill="#3F2820" id="XMLID_1_" points="143.7,173.6 155,243.2 119.5,181.7   "/></g></g></svg>