<?xml version="1.0" ?><svg baseProfile="tiny" id="Layer_1" version="1.2" viewBox="0 0 512 512" xml:space="preserve" xmlns="http://www.w3.org/2000/svg" xmlns:xlink="http://www.w3.org/1999/xlink"><g id="XMLID_51_"><path d="M436,201.4C432.4,15.3,297.8,1.5,267.5,0.7l0-0.7c0,0-183.5-9.1-187.8,200.6   c0,0,6.5,130-52.2,114.4c0,0,69.7,100.1,221.2,18.5l30.2,0.7c140.8,81.7,205.6-18.5,205.6-18.5C430,331.4,436,201.4,436,201.4z" fill="#3F2820" id="XMLID_76_"/><path d="M271.5,487.9h-26.2c-22.2,0-40.2-93.8-40.2-116v-58.2c0-22.2,18-40.2,40.2-40.2h26.2   c22.2,0,40.2,18,40.2,40.2v58.2C311.7,394,293.7,487.9,271.5,487.9z" fill="#EDBB98" id="XMLID_75_"/><ellipse cx="394.4" cy="201.4" fill="#F4C5A2" id="XMLID_74_" rx="30.7" ry="42.5" transform="matrix(0.9772 0.2124 -0.2124 0.9772 51.7758 -79.1769)"/><ellipse cx="122.4" cy="204.1" fill="#F4C5A2" id="XMLID_73_" rx="30.7" ry="42.5" transform="matrix(-0.9772 0.2124 -0.2124 -0.9772 285.2871 377.6162)"/><ellipse cx="258.7" cy="198.7" fill="#F4C5A2" id="XMLID_72_" rx="132" ry="154"/><g id="XMLID_61_"><g id="XMLID_67_"><path d="M282,158.9c3-5.4,7.8-9.4,13.2-12.4c5.4-3,11.6-4.7,18-4.9c3.2-0.2,6.4,0.3,9.5,0.9     c3.1,1,6.1,1.8,8.8,3.5c2.8,1.4,5.2,3.5,7.5,5.5c1.2,1,2.1,2.3,3,3.5c0.9,1.2,1.7,2.5,2.5,3.8c-3.1-0.6-5.7-1.8-8.4-2.4     c-2.7-0.7-5.2-1.5-7.8-1.9c-2.5-0.7-5-0.8-7.4-1.2c-2.5,0-4.9-0.4-7.4-0.2c-4.9,0.1-9.9,0.7-15.1,1.8     C293.2,156.1,287.9,157.4,282,158.9z" fill="#333333" id="XMLID_71_"/><g id="XMLID_68_"><circle cx="313.2" cy="182.8" fill="#333333" id="XMLID_70_" r="15.9"/><circle cx="315.8" cy="171.3" fill="#F2F2F2" id="XMLID_69_" r="4"/></g></g><g id="XMLID_62_"><path d="M169.6,158.9c3-5.4,7.8-9.4,13.2-12.4c5.4-3,11.6-4.7,18-4.9c3.2-0.2,6.4,0.3,9.5,0.9     c3.1,1,6.1,1.8,8.8,3.5c2.8,1.4,5.2,3.5,7.5,5.5c1.2,1,2.1,2.3,3,3.5c0.9,1.2,1.7,2.5,2.5,3.8c-3.1-0.6-5.7-1.8-8.4-2.4     c-2.7-0.7-5.2-1.5-7.8-1.9c-2.5-0.7-5-0.8-7.4-1.2c-2.5,0-4.9-0.4-7.4-0.2c-4.9,0.1-9.9,0.7-15.1,1.8     C180.8,156.1,175.5,157.4,169.6,158.9z" fill="#333333" id="XMLID_66_"/><g id="XMLID_63_"><circle cx="200.8" cy="182.8" fill="#333333" id="XMLID_65_" r="15.9"/><circle cx="203.4" cy="171.3" fill="#F2F2F2" id="XMLID_64_" r="4"/></g></g></g><path d="M311.7,75.9c0,0-37.7,67.7-110.5,83c0,0,7.3-12,9.3-32.4c0,0-50.2,16.8-58.1,71.1   c0,0-2.1,29.2,5.7,44.2c0,0-24.8-38.4-19.7-70.5c0,0-25.8-21.2-41.5,4c0,0,86.3-188.9,218-115.9L311.7,75.9z" fill="#3F2820" id="XMLID_60_"/><path d="M311.7,75.9c0,0,49.6,29.8,41.8,83c0,0,7.1-3.4,12.6-21.7c0,0,5.8,25.3-6.8,57.4   c0,0,19.4-18.5,20.4-27.3c0,0-3.9,54.6-15.5,68.2c0,0,22.5-39.5,30.2-75.7c0,0-6.5-96.1-110.7-113.3L311.7,75.9z" fill="#3F2820" id="XMLID_59_"/><path d="M269.7,433.2" fill="#110102" id="XMLID_58_"/><path d="M234.7,241.3c4.3,1.1,8,2.1,11.7,2.8c3.7,0.7,7.2,1.1,10.7,1.1c3.5,0,7-0.2,10.6-1   c1.9-0.2,3.6-0.9,5.6-1.3c2-0.5,3.8-1.2,6.1-1.6c-1.1,1.9-2.4,3.7-3.9,5.3c-1.6,1.5-3.3,3-5.3,4c-3.9,2.3-8.6,3.4-13.2,3.4   c-4.6,0-9.2-1.3-13-3.5C240.1,248.3,236.7,245.3,234.7,241.3z" fill="#F4A56E" id="XMLID_57_"/><path d="M311.7,369.6l-0.1,0.1v0.8c0,16.4-9.8,30.4-23.9,36.7l-29.1,45.7H258l-29.1-45.7   c-14.1-6.3-23.9-20.3-23.9-36.7v-0.8l-0.1-0.1c-83.7,18.1-148.9,73.9-166.4,141.9c-0.2,1,110.9,0,219.7,0c108.8,0,220,1,219.7,0   C460.6,443.5,395.4,387.8,311.7,369.6z" fill="#F7931E" id="XMLID_56_"/><ellipse cx="336.1" cy="236" fill="#F9B39D" id="XMLID_55_" rx="22.7" ry="17.9"/><ellipse cx="187.8" cy="238.9" fill="#F9B39D" id="XMLID_54_" rx="22.7" ry="17.9"/><g id="XMLID_52_"><ellipse cx="257" cy="289.8" fill="#F4A56E" id="XMLID_53_" rx="16.5" ry="20.1"/></g></g></svg>