<?xml version="1.0" ?><svg baseProfile="tiny" id="Layer_1" version="1.2" viewBox="0 0 512 512" xml:space="preserve" xmlns="http://www.w3.org/2000/svg" xmlns:xlink="http://www.w3.org/1999/xlink"><g id="XMLID_127_"><path d="M423.6,204.3C420.3,20.3,294.9,6.6,266.7,5.9l0-0.7c0,0-170.9-9-174.9,198.4   c0,0,6.1,128.6-48.6,113.2c0,0,64.9,99,206,18.3l28.1,0.7c131.1,80.8,191.4-18.3,191.4-18.3C418,332.8,423.6,204.3,423.6,204.3z" fill="#3F2820" id="XMLID_152_"/><g id="XMLID_148_"><path d="M268.9,411.9h-25.9c-22,0-39.8-17.8-39.8-39.8v-57.6c0-22,17.8-39.8,39.8-39.8h25.9    c22,0,39.8,17.8,39.8,39.8v57.6C308.7,394.1,290.9,411.9,268.9,411.9z" fill="#EDBB98" id="XMLID_151_"/><path d="M308.7,371.2v0.9c0,22-17.8,39.8-39.8,39.8h-25.9c-22,0-39.8-17.8-39.8-39.8v-0.9    c-82.8,17.9-147.3,73-164.6,140.4c-0.2,1,109.7,0,217.3,0c107.6,0,217.5,1,217.3,0C456,444.2,391.5,389.1,308.7,371.2z" fill="#9E005D" id="XMLID_150_"/><path d="M266.9,432.6" fill="#110102" id="XMLID_149_"/></g><g id="XMLID_128_"><ellipse cx="390.5" cy="203.3" fill="#F4C5A2" id="XMLID_147_" rx="30.4" ry="42" transform="matrix(0.9772 0.2124 -0.2124 0.9772 52.1004 -78.3067)"/><ellipse cx="121.5" cy="206" fill="#F4C5A2" id="XMLID_146_" rx="30.4" ry="42" transform="matrix(-0.9772 0.2124 -0.2124 -0.9772 283.9958 381.5853)"/><ellipse cx="256.3" cy="200.7" fill="#F4C5A2" id="XMLID_145_" rx="130.5" ry="152.3"/><g id="XMLID_134_"><g id="XMLID_140_"><path d="M279.3,161.3c3-5.3,7.7-9.3,13-12.3c5.3-2.9,11.5-4.7,17.8-4.8c3.2-0.2,6.3,0.3,9.4,0.9      c3,0.9,6.1,1.8,8.7,3.5c2.8,1.4,5.2,3.4,7.4,5.5c1.1,1,2,2.3,2.9,3.5c0.9,1.2,1.7,2.5,2.4,3.8c-3.1-0.6-5.6-1.8-8.3-2.4      c-2.7-0.6-5.1-1.5-7.7-1.9c-2.5-0.6-5-0.7-7.3-1.1c-2.5,0-4.8-0.4-7.3-0.2c-4.9,0.1-9.8,0.7-14.9,1.7      C290.4,158.5,285.2,159.9,279.3,161.3z" fill="#333333" id="XMLID_144_"/><g id="XMLID_141_"><circle cx="310.2" cy="185" fill="#333333" id="XMLID_143_" r="15.7"/><circle cx="312.8" cy="173.6" fill="#F2F2F2" id="XMLID_142_" r="3.9"/></g></g><g id="XMLID_135_"><path d="M168.2,161.3c3-5.3,7.7-9.3,13-12.3c5.3-2.9,11.5-4.7,17.8-4.8c3.2-0.2,6.3,0.3,9.4,0.9      c3,0.9,6.1,1.8,8.7,3.5c2.8,1.4,5.2,3.4,7.4,5.5c1.1,1,2,2.3,2.9,3.5c0.9,1.2,1.7,2.5,2.4,3.8c-3.1-0.6-5.6-1.8-8.3-2.4      c-2.7-0.6-5.1-1.5-7.7-1.9c-2.5-0.6-5-0.7-7.3-1.1c-2.5,0-4.8-0.4-7.3-0.2c-4.9,0.1-9.8,0.7-14.9,1.7      C179.3,158.5,174.1,159.9,168.2,161.3z" fill="#333333" id="XMLID_139_"/><g id="XMLID_136_"><circle cx="199.1" cy="185" fill="#333333" id="XMLID_138_" r="15.7"/><circle cx="201.7" cy="173.6" fill="#F2F2F2" id="XMLID_137_" r="3.9"/></g></g></g><path d="M232.6,242.8c4.2,1.1,7.9,2.1,11.6,2.8c3.6,0.7,7.1,1.1,10.6,1.1c3.4,0,6.9-0.2,10.4-1    c1.8-0.2,3.6-0.9,5.5-1.3c1.9-0.4,3.8-1.2,6-1.6c-1,1.9-2.3,3.7-3.8,5.3c-1.6,1.5-3.2,3-5.2,4c-3.8,2.3-8.5,3.4-13,3.3    c-4.6,0-9.1-1.3-12.9-3.4C237.9,249.7,234.6,246.7,232.6,242.8z" fill="#F4A56E" id="XMLID_133_"/><path d="M305.1,303.6c-3.1-4-5.9-8-9.4-11.7c-1.7-1.8-3.7-3.6-5.9-5.1c-2.1-1.5-4.4-2.5-6.7-3.4    c-4.6-1.9-9.4-2.9-14.1-3.7c-4.7-0.7-9.5-1-14.2-1.3l-0.1,0l-0.2,0c-4.7,0.2-9.4,0.6-14.2,1.3c-4.7,0.8-9.5,1.8-14.1,3.7    c-2.3,1-4.6,2-6.8,3.4c-2.2,1.5-4.1,3.2-5.9,5.1c-3.5,3.8-6.3,7.8-9.4,11.7c4.1-2.6,7.8-6,11.6-8.6c1.9-1.4,3.8-2.6,5.8-3.4    c2-0.9,4.1-1.6,6.3-2.1c4.3-1.1,8.7-1.8,13.3-2.1c4.5-0.4,9.1-0.6,13.7-0.9h-0.3c4.6,0.1,9.2,0.4,13.7,0.9c4.5,0.4,9,1.1,13.3,2.1    c2.1,0.5,4.2,1.3,6.3,2.1c2,0.8,3.9,2.1,5.8,3.4C297.3,297.6,301,301,305.1,303.6z" fill="#F4A56E" id="XMLID_132_"/><ellipse cx="332.9" cy="237.6" fill="#F9B39D" id="XMLID_131_" rx="22.5" ry="17.7"/><ellipse cx="186.3" cy="240.4" fill="#F9B39D" id="XMLID_130_" rx="22.5" ry="17.7"/><path d="M148,157.2l58.7-1.3l2.1-51.3l23.8,53h23.8c0,0-5.6-39.5-1.7-59.7l22.1,59.7l94.3-4.8    c0,0,8.7,21.1-4.8,39.3c0,0,14.7-6.8,16.9-27.4c0,0,15.9-5.7,28.3,4.6c0,0,21.3-143.5-102.8-164.7c0,0-224.1-48.4-209.6,169    c0,0,24.9-30.5,41.2,18.5l11.5,11.2L148,157.2z" fill="#3F2820" id="XMLID_129_"/></g></g></svg>