<?xml version="1.0" ?><svg baseProfile="tiny" id="Layer_1" version="1.2" viewBox="0 0 512 512" xml:space="preserve" xmlns="http://www.w3.org/2000/svg" xmlns:xlink="http://www.w3.org/1999/xlink"><g id="XMLID_441_"><g id="XMLID_484_"><path d="M268.7,413.6h-25.4c-21.6,0-39.1-17.5-39.1-39.1v-56.6c0-21.6,17.5-39.1,39.1-39.1h25.4    c21.6,0,39.1,17.5,39.1,39.1v56.6C307.8,396.1,290.3,413.6,268.7,413.6z" fill="#EDBB98" id="XMLID_218_"/></g><g id="XMLID_482_"><path d="M307.8,373.6v0.9c0,21.6-17.5,39.1-39.1,39.1h-25.4c-21.6,0-39.1-17.5-39.1-39.1v-0.9    c-81.4,17.6-144.8,71.8-161.8,138c-0.2,0.9,107.8,0,213.6,0c105.8,0,213.9,0.9,213.6,0C452.6,445.4,389.2,391.2,307.8,373.6z" fill="#2B00FF" id="XMLID_217_"/></g><g id="XMLID_480_"><ellipse cx="385.4" cy="214.7" fill="#F4C5A2" id="XMLID_216_" rx="28.7" ry="39.6" transform="matrix(0.9772 0.2124 -0.2124 0.9772 54.3952 -76.9704)"/></g><g id="XMLID_478_"><ellipse cx="131.6" cy="217.2" fill="#F4C5A2" id="XMLID_215_" rx="28.7" ry="39.6" transform="matrix(-0.9772 0.2124 -0.2124 -0.9772 306.2907 401.5808)"/></g><g id="XMLID_476_"><ellipse cx="258.8" cy="212.2" fill="#F4C5A2" id="XMLID_214_" rx="123.2" ry="143.7"/></g><g id="XMLID_474_"><path d="M282.1,163.7c2.8-5,7.3-8.8,12.3-11.6c5-2.8,10.8-4.4,16.8-4.5c3-0.2,6,0.3,8.9,0.8    c2.9,0.9,5.7,1.7,8.2,3.3c2.6,1.3,4.9,3.2,7,5.2c1.1,0.9,1.9,2.1,2.8,3.3c0.8,1.2,1.6,2.3,2.3,3.6c-2.9-0.6-5.3-1.7-7.8-2.3    c-2.5-0.6-4.8-1.4-7.2-1.7c-2.3-0.6-4.7-0.7-6.9-1.1c-2.3,0-4.6-0.3-6.9-0.1c-4.6,0.1-9.2,0.7-14.1,1.6    C292.6,161.1,287.6,162.3,282.1,163.7z" fill="#333333" id="XMLID_213_"/></g><g id="XMLID_469_"><g id="XMLID_472_"><circle cx="311.2" cy="197.4" fill="#333333" id="XMLID_212_" r="14.8"/></g><g id="XMLID_470_"><circle cx="313.7" cy="186.6" fill="#F2F2F2" id="XMLID_211_" r="3.7"/></g></g><g id="XMLID_467_"><path d="M177.3,163.7c2.8-5,7.3-8.8,12.3-11.6c5-2.8,10.8-4.4,16.8-4.5c3-0.2,6,0.3,8.9,0.8    c2.9,0.9,5.7,1.7,8.2,3.3c2.6,1.3,4.9,3.2,7,5.2c1.1,0.9,1.9,2.1,2.8,3.3c0.8,1.2,1.6,2.3,2.3,3.6c-2.9-0.6-5.3-1.7-7.8-2.3    c-2.5-0.6-4.8-1.4-7.2-1.7c-2.3-0.6-4.7-0.7-6.9-1.1c-2.3,0-4.6-0.3-6.9-0.1c-4.6,0.1-9.2,0.7-14.1,1.6    C187.7,161.1,182.8,162.3,177.3,163.7z" fill="#333333" id="XMLID_210_"/></g><g id="XMLID_462_"><g id="XMLID_465_"><circle cx="206.4" cy="197.4" fill="#333333" id="XMLID_209_" r="14.8"/></g><g id="XMLID_463_"><circle cx="208.8" cy="186.6" fill="#F2F2F2" id="XMLID_208_" r="3.7"/></g></g><g id="XMLID_460_"><path d="M236.6,243.6c4,1.1,7.5,2,10.9,2.6c3.4,0.7,6.7,1,10,1.1c3.2,0,6.5-0.2,9.9-1    c1.7-0.2,3.4-0.8,5.2-1.2c1.8-0.4,3.6-1.2,5.7-1.5c-1,1.8-2.2,3.5-3.6,5c-1.5,1.4-3.1,2.8-5,3.8c-3.6,2.2-8,3.2-12.3,3.2    c-4.3,0-8.5-1.2-12.2-3.2C241.6,250.2,238.5,247.4,236.6,243.6z" fill="#F4A56E" id="XMLID_207_"/></g><g id="XMLID_458_"><path d="M258.8,96.6c0,0,27.1,53.8,89.7,58.5c0,0,17.9,37.9,8.3,57l21.7-34c0,0,19.1-5.1,29.9,8.4    c0,0,25.8-115.8-55.2-161.4c0,0,14.3-9.5,16.3-9.5c2,0-21.7,1.4-29.2,5.4V0l-14.3,17.7c0,0-85.6-48.2-184.3,17.8    c0,0-68.5,55.8-35.3,157.5c0,0,10.8-23.2,31.9-10.4c0,0,11.8,23.3,22.2,34.7c0,0-14.8-56,13.1-90c0,0,3.1,24.1,17.9,27.9    c0,0-8.6-19.3,3.8-46.5c0,0,9.9,53.2,54.4,54C249.9,162.6,218.9,117.1,258.8,96.6z" fill="#3F2820" id="XMLID_206_"/></g><g id="XMLID_454_"><path d="M310,236c-22.4,0-40.6-18.2-40.6-40.6s18.2-40.6,40.6-40.6c22.4,0,40.6,18.2,40.6,40.6    S332.3,236,310,236z M310,160.5c-19.2,0-34.9,15.7-34.9,34.9s15.7,34.9,34.9,34.9c19.2,0,34.9-15.7,34.9-34.9    S329.2,160.5,310,160.5z" fill="#1A1A1A" id="XMLID_455_"/></g><g id="XMLID_450_"><path d="M206.4,236c-22.4,0-40.6-18.2-40.6-40.6s18.2-40.6,40.6-40.6c22.4,0,40.6,18.2,40.6,40.6    S228.8,236,206.4,236z M206.4,160.5c-19.2,0-34.9,15.7-34.9,34.9s15.7,34.9,34.9,34.9s34.9-15.7,34.9-34.9    S225.6,160.5,206.4,160.5z" fill="#1A1A1A" id="XMLID_451_"/></g><g id="XMLID_448_"><path d="M251.5,189.8c-9.3,0-9.5-0.6-10.1-2.2l1-3.2l3.5,4.5l-1.7-2.2l0.1-0.6    c-0.3-1.3,1.2-2,0.6-2.1c1.9,0.3,17.7,0.1,28.4-0.2l0.1,5.7C263,189.7,256.1,189.8,251.5,189.8z" fill="#1A1A1A" id="XMLID_201_"/></g><g id="XMLID_446_"><rect fill="#1A1A1A" height="5.7" id="XMLID_200_" transform="matrix(0.9228 0.3853 -0.3853 0.9228 96.858 -123.5487)" width="35.4" x="339" y="177.1"/></g><g id="XMLID_444_"><rect fill="#1A1A1A" height="38.6" id="XMLID_199_" transform="matrix(0.4043 0.9146 -0.9146 0.4043 259.4455 -37.9398)" width="5.7" x="156" y="160.9"/></g><g id="XMLID_442_"><ellipse cx="257.4" cy="289.7" fill="#F4A56E" id="XMLID_19_" rx="16.1" ry="19.5"/></g></g></svg>