<svg xmlns="http://www.w3.org/2000/svg" viewBox="0 0 247.81 48.13"><defs><style>.cls-1{fill:#fff;}.cls-2{fill:#51a4db;}</style></defs><title>Asset 2</title><g id="Layer_2" data-name="Layer 2"><g id="Layer_1-2" data-name="Layer 1"><path class="cls-1" d="M74.1,22v8.64h8.65v3.9a22.23,22.23,0,0,1-4.51,2.13,13.88,13.88,0,0,1-4.14.62A9,9,0,0,1,67,34.39q-2.56-2.88-2.56-9.63a22.46,22.46,0,0,1,.47-4.83c-4.64,1-9.13,2.08-13.4,3.22,0,.57,0,1.16,0,1.76A24.57,24.57,0,0,0,54,36.35a17.27,17.27,0,0,0,7.29,7.5Q66,46.37,73.47,46.37A34.61,34.61,0,0,0,83.94,45,40.9,40.9,0,0,0,94.1,39.69V22ZM81,17.4l12.49-2.21c-.06-.21-.12-.42-.19-.63C89.17,15.24,85,16,80.79,16.74,80.88,17,81,17.17,81,17.4Zm-7.32-4.84a10.21,10.21,0,0,1,2.76.35c5.11-.73,10.24-1.38,15.31-1.95a14,14,0,0,0-1.68-2.41A13.63,13.63,0,0,0,84.4,4.68Q80.95,3.44,74,3.44q-7.2,0-11.46,2a18.3,18.3,0,0,0-8.29,7.63,21.16,21.16,0,0,0-1.72,4C57.65,16,63,15,68.4,14.15A8.8,8.8,0,0,1,73.72,12.56Z"/><path class="cls-1" d="M127.47,29.47a7.23,7.23,0,0,1-1.9,5.34,8.25,8.25,0,0,1-10.52,0,7.19,7.19,0,0,1-1.9-5.31V11.58c-4.18.58-8.52,1.21-12.92,1.89V28.88a24.58,24.58,0,0,0,1.2,7,13.18,13.18,0,0,0,2.76,4.78,15,15,0,0,0,4.45,3.58,17.64,17.64,0,0,0,6,1.69,58.05,58.05,0,0,0,6.67.42A26.4,26.4,0,0,0,130.41,45a14.54,14.54,0,0,0,5.19-3.44,14.94,14.94,0,0,0,3.63-5.72,20.68,20.68,0,0,0,1.15-6.95V8.19c-3.83.43-8.18.93-12.91,1.52Zm0-25.32V7.84c4.74-.3,9.09-.54,12.91-.72v-3Zm-14.32,0H100.23v5.91c4.42-.44,8.75-.83,12.92-1.17Z"/><path class="cls-1" d="M147.89,4.15V6.79c5.78-.23,9.18-.29,9.18-.29s-3.41.3-9.18.89V45.66h13V4.15Z"/><path class="cls-1" d="M168.74,4.15H188a23.16,23.16,0,0,1,9.18,1.53A14.83,14.83,0,0,1,203,10.07a18.17,18.17,0,0,1,3.32,6.65,30.86,30.86,0,0,1,1,8q0,6.66-1.52,10.33a17.11,17.11,0,0,1-4.25,6.14,13.8,13.8,0,0,1-5.83,3.3A30.06,30.06,0,0,1,188,45.66H168.74Zm12.95,9.4V36.23h3.17c2.71,0,4.63-.29,5.77-.89a6,6,0,0,0,2.69-3.11q1-2.23,1-7.21,0-6.6-2.17-9t-7.2-2.43Z"/><path class="cls-1" d="M212.49,4.15h34.69V13H225.46v6.6h20.15v8.47H225.46v8.18h22.35v9.4H212.49Z"/><path class="cls-2" d="M17.07,47.09a43.6,43.6,0,0,0,7,1A24.07,24.07,0,0,0,48.13,24.06C26.44,30.16,11.71,37.83,17.07,47.09ZM24.06,0A24.06,24.06,0,0,0,0,24.06c0,6.52,6.8,16.76,6.8,16.76C9.23,30.54,26,23.32,47.42,18.26A24.06,24.06,0,0,0,24.06,0Z"/></g></g></svg>