<svg xmlns="http://www.w3.org/2000/svg" viewBox="0 0 383.8 56.98"><defs><style>.cls-1{fill:#97bfe6;}.cls-2{fill:#fff;}</style></defs><title>comet-Styleguide-Logo</title><g id="Layer_2" data-name="Layer 2"><g id="Layer_1-2" data-name="Layer 1"><path class="cls-1" d="M68.16,0A24.07,24.07,0,0,0,44.09,24.06c0,6.51,6.8,16.76,6.8,16.76C53.32,30.55,70,23.32,91.51,18.26A24.05,24.05,0,0,0,68.16,0Zm-7,47.09a44,44,0,0,0,7,1,24.06,24.06,0,0,0,24.06-24C70.53,30.16,55.81,37.84,61.16,47.09Z"/><path class="cls-2" d="M29.41,27.83l11.34,3.39a20.62,20.62,0,0,1-3.6,7.91,15.58,15.58,0,0,1-6.1,4.78,22.93,22.93,0,0,1-9.27,1.62,27.12,27.12,0,0,1-11.16-2,17.65,17.65,0,0,1-7.48-6.92Q0,31.69,0,24,0,13.66,5.53,8.13T21.18,2.59q7.91,0,12.44,3.17t6.73,9.75L28.92,18a9.64,9.64,0,0,0-1.26-2.78A7.3,7.3,0,0,0,25,13a7.65,7.65,0,0,0-3.51-.8,7.61,7.61,0,0,0-6.74,3.51Q13,18.31,13,23.87c0,4.61.71,7.76,2.12,9.47A7.3,7.3,0,0,0,21,35.9a7.26,7.26,0,0,0,5.62-2.07A12.9,12.9,0,0,0,29.41,27.83Z"/><path class="cls-2" d="M97,22.78v22h10.61V20.24C103.94,21.05,100.39,21.9,97,22.78ZM114,3.25H97V17c3.45-.73,7-1.41,10.61-2.05V13.11L108,14.9q4.27-.75,8.62-1.4ZM123.54,17h0l-3,11.53-2.71-10.44c-2.88.57-5.73,1.16-8.53,1.77l6.41,24.92h9.6l7.59-29.46C129.79,15.85,126.66,16.4,123.54,17Zm3.54-13.74-2.35,9.09c6.51-.88,13-1.62,19.37-2.26V3.25Zm6.41,12V44.77H144.1V13.5C140.6,14,137.05,14.61,133.49,15.21Z"/><path class="cls-2" d="M150.75,3.25v6.2c13.41-1.22,25.64-1.95,34.69-2.37V3.25Zm13,32.12V27.18h20.15V18.72H163.72v-6.6h21.72v-4c-9.1,1-21.37,2.47-34.69,4.41V44.77h35.32v-9.4Z"/><path class="cls-2" d="M227.87,3.25V13.51H214.66V44.77H201.72V13.51h-13.2V7.76c7.84-.84,12.65-1.26,12.65-1.26s-4.79.09-12.65.43V3.25Z"/><path class="cls-1" d="M231.46,31l12.32-.77a9.3,9.3,0,0,0,1.63,4.53,6.87,6.87,0,0,0,5.72,2.52A6.37,6.37,0,0,0,255.4,36a3.67,3.67,0,0,0,.07-5.87q-1.42-1.28-6.63-2.41-8.52-1.89-12.15-5a10.1,10.1,0,0,1-3.65-8,10.8,10.8,0,0,1,1.87-6,12.4,12.4,0,0,1,5.63-4.48c2.5-1.08,5.94-1.62,10.3-1.62q8,0,12.24,3t5,9.41l-12.2.71a6.51,6.51,0,0,0-2.05-4.08,6.58,6.58,0,0,0-4.3-1.27,5.2,5.2,0,0,0-3.4,1,2.89,2.89,0,0,0-1.14,2.3,2.3,2.3,0,0,0,.94,1.79q.92.82,4.35,1.53,8.49,1.81,12.16,3.66a12.8,12.8,0,0,1,5.34,4.61,11.62,11.62,0,0,1,1.67,6.14,13.08,13.08,0,0,1-2.23,7.37A13.91,13.91,0,0,1,261,43.74a25.38,25.38,0,0,1-10.09,1.74q-10.68,0-14.8-4.08A16.07,16.07,0,0,1,231.46,31Z"/><path class="cls-1" d="M287.67,3.25V14.7h6.4v8.43h-6.4V33.79a5.63,5.63,0,0,0,.37,2.54,2.12,2.12,0,0,0,2,1,12.78,12.78,0,0,0,3.6-.73l.86,8a38.45,38.45,0,0,1-8.06.93,14.19,14.19,0,0,1-6.4-1.1A6.75,6.75,0,0,1,277,41a19.75,19.75,0,0,1-1-7.29V23.13h-4.29V14.7H276V9.17Z"/><path class="cls-1" d="M294.69,14.7H307l6.26,20,5.81-20h11.46l-12,32.13c-1.37,3.67-2.77,6.14-4.2,7.43-2,1.81-5.09,2.72-9.22,2.72a67.86,67.86,0,0,1-7.77-.68l-.91-8a18.45,18.45,0,0,0,5.59.8,5.45,5.45,0,0,0,3.33-.94,7.12,7.12,0,0,0,2.15-3.34Z"/><path class="cls-1" d="M332.6,3.25h11.66V44.77H332.6Z"/><path class="cls-1" d="M383.8,32.59H360.48A7.46,7.46,0,0,0,362,36.73a5.53,5.53,0,0,0,4.4,2,6.64,6.64,0,0,0,3.26-.85,7.62,7.62,0,0,0,2-1.89l11.46,1a16.28,16.28,0,0,1-6.34,6.5q-3.72,2-10.66,2a22.07,22.07,0,0,1-9.49-1.68,14,14,0,0,1-5.73-5.36,16.07,16.07,0,0,1-2.27-8.62,15.06,15.06,0,0,1,4.56-11.41Q357.77,14,365.8,14q6.51,0,10.29,2a13.24,13.24,0,0,1,5.74,5.66,20.65,20.65,0,0,1,2,9.66ZM372,27.07a7.71,7.71,0,0,0-1.81-4.79,5.74,5.74,0,0,0-8.31.74,8,8,0,0,0-1.34,4.05Z"/></g></g></svg>