<svg xmlns="http://www.w3.org/2000/svg" viewBox="0 0 392 62"><defs><style>.cls-1{fill:#153b64;}.cls-2{fill:#fafcfe;}.cls-3{fill:#50a4db;}</style></defs><title>SVGAsset 3</title><g id="Layer_2" data-name="Layer 2"><g id="Layer_1-2" data-name="Layer 1"><rect id="container" class="cls-1" width="392" height="62"/><path class="cls-2" d="M45.51,41.5c-.22,1.11-.5,2.66-.82,4.65s-.53,3.52-.65,4.61a73.16,73.16,0,0,1-10.82.91,30.35,30.35,0,0,1-8.54-1.15,20.87,20.87,0,0,1-7.25-3.77,14.82,14.82,0,0,1-4.71-6.16,21.24,21.24,0,0,1-1.42-7.92,21.42,21.42,0,0,1,1.92-9.22,18,18,0,0,1,5.49-6.83,23,23,0,0,1,7.86-3.91,33.28,33.28,0,0,1,8.83-1.17,63,63,0,0,1,10.37,1.07L45.83,15c0,1,.09,2.18.17,3.43l.19,3.23q-3.3-.79-5.36-1.08A27.81,27.81,0,0,0,37,20.29a15.16,15.16,0,0,0-6.88,1.53,11.54,11.54,0,0,0-4.82,4.44,12.31,12.31,0,0,0-1.75,6.46A10.11,10.11,0,0,0,25,38.26a9.89,9.89,0,0,0,4,3.57,13.68,13.68,0,0,0,6.19,1.26,31.78,31.78,0,0,0,4.37-.33A53.39,53.39,0,0,0,45.51,41.5Z"/><path class="cls-2" d="M102.54,29.26l-1.4,16-.7,5.72q3.63-.06,5.1-.06l5,.06.09-3.62.94-16.09.38-4.17C108.72,27.76,105.58,28.49,102.54,29.26ZM120.15,16c-.17-.84-.38-2.07-.62-3.7q-5.09.06-7.56.06-3,0-8.22-.06L103,23.5c5.89-1.2,12-2.26,18.25-3.19C120.67,18.18,120.31,16.74,120.15,16Zm20.9-3.64q-4.08,0-8.32-.06c-.48,1.74-.85,3-1.13,3.87-.18.55-.52,1.5-1,2.86,6-.79,12.06-1.46,17.92-2,.07-1.5.15-3.07.24-4.69Q143.83,12.33,141.05,12.33Zm7.3,8c-6.41,1-13,2.08-19.48,3.27-.68,1.86-1.26,3.57-1.76,5.13q-1,3.19-2.27,7.64C124,32.08,123.42,29,123,27.24c-.17-.74-.36-1.54-.58-2.39q-4.83.95-9.53,2c0,.08,0,.16.06.23l2,8.3,3.49,15.57c2.41,0,4.21-.06,5.38-.06q1.38,0,5.07.06l5.33-16.08L138,23.32c0,1.38.05,2.45.05,3.23q0,2.65-.34,12.25t-.58,12.13c2.12,0,3.9-.06,5.36-.06,1,0,2.74,0,5.23.06,0-1.83,0-3.1,0-3.79q0-5,.37-18.47Q148.14,24.92,148.35,20.36Z"/><path class="cls-2" d="M154.83,19.4c-.06,1.7-.13,3.77-.23,6.2q-.33,8.17-.65,13.1t-1,12.23l4,0,12.46,0q8.25,0,15.15.06.22-4.47.57-8.66c-2,.13-3.49.2-4.36.22l-5.86.14q-4.53.09-6,.09h-3.25l.33-6.88c3.23-.14,6.15-.2,8.75-.2q2.63,0,7.53,0,.25-5,.54-8.63-6.85.2-8.45.2-4.44,0-7.79-.09l.35-6.51c2-.08,3.5-.12,4.46-.13h5.51q3.71,0,9.17.22c0-.68,0-1.34.06-2l.17-3.08c0-.11,0-.21,0-.31C177.67,16.32,166.67,17.67,154.83,19.4Zm16.24-7.07q-9.49,0-16.17-.06l0,2.5c0,.42,0,1,0,1.58,11.91-1.07,22.87-1.76,31.47-2.2,0-.5.05-.82.06-.94l.06-.94Q179.81,12.33,171.07,12.33Z"/><path class="cls-2" d="M224.37,12.27l-.17,2.78c-.07,1.49-.13,2.72-.15,3.69s-.05,1.7-.05,2.2q-6-.32-10-.31h-2c-.28,3.33-.5,6.42-.65,9.24q-.31,6.07-.49,11.8t-.17,9.26l-6-.06-6.51.06q1.41-13.76,1.69-30.3l-12.05.31L188,17.8c0-.84.07-1.73.1-2.65,10.29-1.14,16.84-1.71,16.84-1.71s-6.5.12-16.81.63c0-.59,0-1.19,0-1.8q8,.06,18.74.06l7,0h6.79Z"/><path class="cls-3" d="M232.28,50.93q.63-6.45.85-10.34.35-5.78.69-15,.26-7,.25-10V12.27c2.21.06,4.12.09,5.72.09s3.58,0,6.09-.13,4.87-.13,7.08-.13a43.07,43.07,0,0,1,6.65.46A15.39,15.39,0,0,1,265,14.43a13.17,13.17,0,0,1,4.15,3.71,16.93,16.93,0,0,1,2.54,5.36,22.77,22.77,0,0,1,.88,6.33,27,27,0,0,1-.68,6.16A22.68,22.68,0,0,1,270,41.33a17.67,17.67,0,0,1-2.85,4.09,16.43,16.43,0,0,1-3.73,2.93,15.36,15.36,0,0,1-3.14,1.42,23.57,23.57,0,0,1-4.33.82,62.54,62.54,0,0,1-6.94.34l-11.44-.08C236.44,50.85,234.7,50.88,232.28,50.93Zm12.24-8.52c1,.09,2.13.14,3.26.14a23.57,23.57,0,0,0,5.15-.51,8.25,8.25,0,0,0,4-2.18,10.19,10.19,0,0,0,2.53-4.29,17.8,17.8,0,0,0,.82-5.37A12.08,12.08,0,0,0,259,24.52a6.8,6.8,0,0,0-3.24-3.21,13.65,13.65,0,0,0-5.51-.91c-1.36,0-3,.06-4.81.17Z"/><path class="cls-3" d="M299.39,21.28a21.27,21.27,0,0,1,6.76,1.08,15,15,0,0,1,5.48,3.1,12.45,12.45,0,0,1,3.3,4.73A15.92,15.92,0,0,1,316,36a17.49,17.49,0,0,1-.95,5.76,14.29,14.29,0,0,1-3.21,5.13,14.08,14.08,0,0,1-5.77,3.58,23.44,23.44,0,0,1-14.31.14,14.77,14.77,0,0,1-5.54-3.06,12.73,12.73,0,0,1-3.34-4.81,15.7,15.7,0,0,1-1.12-5.89A16,16,0,0,1,282.84,31a14,14,0,0,1,3.45-5,16.13,16.13,0,0,1,5.85-3.44A22.1,22.1,0,0,1,299.39,21.28Zm-.2,8.33a5.55,5.55,0,0,0-5.36,3.66,10.49,10.49,0,0,0-.72,3.93A6.72,6.72,0,0,0,294.66,42a5.16,5.16,0,0,0,3.91,1.66,5.63,5.63,0,0,0,3.2-1,5.77,5.77,0,0,0,2.14-2.81,10.86,10.86,0,0,0,.72-4,8.64,8.64,0,0,0-.56-3.17,4.78,4.78,0,0,0-1.86-2.26A5.32,5.32,0,0,0,299.19,29.61Z"/><path class="cls-3" d="M350.11,41.9c-.1.75-.32,2.14-.68,4.16l-.74,4.53A36.71,36.71,0,0,1,340,51.67a21.24,21.24,0,0,1-5.41-.62,12.56,12.56,0,0,1-4.93-2.61,11.22,11.22,0,0,1-3.25-4.56A18.53,18.53,0,0,1,325.19,37a19.42,19.42,0,0,1,1.19-6.77,13.23,13.23,0,0,1,3.51-5.37A12.1,12.1,0,0,1,335,22a25.44,25.44,0,0,1,6.26-.72,39.53,39.53,0,0,1,4.05.21,41.34,41.34,0,0,1,5,.92l.06.65c.06.68.1,1.38.13,2.09s.09,1.82.18,3.35l.17,2.52a22.18,22.18,0,0,0-7.16-1.41,8.46,8.46,0,0,0-3.93.86A5.55,5.55,0,0,0,337.35,33a8.41,8.41,0,0,0-.81,3.78,8.28,8.28,0,0,0,.73,3.66,4.71,4.71,0,0,0,2.3,2.21,8.2,8.2,0,0,0,3.49.73,14.66,14.66,0,0,0,2.28-.2c.87-.13,1.64-.27,2.29-.43A24.64,24.64,0,0,0,350.11,41.9Z"/><path class="cls-3" d="M360.89,50.39c-.07-.83-.15-1.7-.22-2.62s-.2-2.17-.37-3.78l-.23-2a41.9,41.9,0,0,0,4.72,1.6,14.3,14.3,0,0,0,3.65.53,8,8,0,0,0,2.24-.26,2.46,2.46,0,0,0,1.26-.73,1.56,1.56,0,0,0,.39-1,1.57,1.57,0,0,0-.29-.9A6.35,6.35,0,0,0,370.7,40q-2.32-1.7-4.08-3.09A17.05,17.05,0,0,1,364,34.45a8.13,8.13,0,0,1-1.35-2.32,7.1,7.1,0,0,1-.47-2.58,7.8,7.8,0,0,1,1.35-4.39,7.5,7.5,0,0,1,4-3,19.53,19.53,0,0,1,6.39-.92,63.57,63.57,0,0,1,10.05,1l.45,7.93a17.76,17.76,0,0,0-6.6-1.36,8.28,8.28,0,0,0-3.24.46,1.5,1.5,0,0,0-1,1.41,1.44,1.44,0,0,0,.11.59,1.84,1.84,0,0,0,.41.6,5.5,5.5,0,0,0,.74.64c.29.21,1,.72,2.13,1.51s2,1.45,2.67,2a14.73,14.73,0,0,1,2.42,2.3,8.12,8.12,0,0,1,1.27,2.27,7.4,7.4,0,0,1,.44,2.53,7.16,7.16,0,0,1-1,3.7,7.84,7.84,0,0,1-2.94,2.82,13.63,13.63,0,0,1-4.26,1.57,25.37,25.37,0,0,1-4.73.44,37.31,37.31,0,0,1-4.12-.29A55.18,55.18,0,0,1,360.89,50.39Z"/><path class="cls-3" d="M71.92,6.94A24.06,24.06,0,0,0,47.86,31c0,6.52,6.79,16.76,6.79,16.76C57.08,37.49,73.8,30.26,95.27,25.2A24.05,24.05,0,0,0,71.92,6.94ZM64.92,54a44.18,44.18,0,0,0,7,1A24.06,24.06,0,0,0,96,31C74.29,37.1,59.57,44.78,64.92,54Zm48-27.2-1,.22"/></g></g></svg>