<svg xmlns="http://www.w3.org/2000/svg" viewBox="0 0 349.04 48.12"><defs><style>.cls-1{fill:#fafcfe;}.cls-2{fill:#50a4db;}</style></defs><title>cometDocsTransparent 2</title><g id="Layer_2" data-name="Layer 2"><g id="Layer_1-2" data-name="Layer 1"><path class="cls-1" d="M34.21,34.56c-.23,1.11-.5,2.66-.82,4.65s-.54,3.52-.65,4.61a73.27,73.27,0,0,1-10.82.91,30.71,30.71,0,0,1-8.54-1.15,20.87,20.87,0,0,1-7.25-3.77,14.8,14.8,0,0,1-4.71-6.16A21.06,21.06,0,0,1,0,25.72a21.55,21.55,0,0,1,1.91-9.21,18.13,18.13,0,0,1,5.5-6.83,22.87,22.87,0,0,1,7.85-3.91A33.41,33.41,0,0,1,24.1,4.6,63.05,63.05,0,0,1,34.47,5.67l.05,2.38c0,1,.1,2.18.17,3.43l.2,3.23q-3.32-.8-5.37-1.08a27.7,27.7,0,0,0-3.81-.28,15.19,15.19,0,0,0-6.88,1.53A11.52,11.52,0,0,0,14,19.32a12.31,12.31,0,0,0-1.76,6.46,10,10,0,0,0,1.48,5.54,9.86,9.86,0,0,0,4,3.57,13.74,13.74,0,0,0,6.19,1.26,31.92,31.92,0,0,0,4.38-.33A54.36,54.36,0,0,0,34.21,34.56Z"/><path class="cls-1" d="M91.24,22.32l-1.4,16L89.14,44q3.63-.06,5.1-.06l5,.06.09-3.62.94-16.09.38-4.17C97.42,20.82,94.28,21.55,91.24,22.32ZM108.85,9c-.17-.84-.38-2.07-.62-3.7q-5.08.06-7.56.06-3,0-8.22-.06L91.7,16.56c5.89-1.2,12-2.26,18.25-3.19C109.37,11.24,109,9.8,108.85,9Zm20.9-3.64q-4.08,0-8.32-.06c-.48,1.74-.85,3-1.13,3.87-.18.55-.52,1.5-1,2.86,6-.79,12.06-1.46,17.92-2,.07-1.5.15-3.07.24-4.69Q132.53,5.39,129.75,5.39Zm7.3,8c-6.41,1-13,2.08-19.48,3.27-.68,1.86-1.26,3.57-1.76,5.13q-1,3.2-2.27,7.64c-.81-4.32-1.42-7.38-1.82-9.16-.17-.74-.36-1.54-.58-2.39q-4.83.94-9.53,2c0,.08,0,.16.06.23l2,8.3L107.21,44c2.41,0,4.21-.06,5.38-.06q1.38,0,5.07.06L123,27.91l3.72-11.53c0,1.38.05,2.45.05,3.23q0,2.66-.34,12.25T125.84,44c2.12,0,3.9-.06,5.36-.06,1,0,2.74,0,5.23.06,0-1.83-.05-3.1-.05-3.79q0-5,.37-18.47Q136.84,18,137.05,13.42Z"/><path class="cls-1" d="M143.53,12.46c-.06,1.7-.13,3.77-.23,6.2q-.33,8.18-.65,13.1t-1,12.23l4,0,12.46,0q8.25,0,15.15.06.22-4.47.57-8.66c-2,.13-3.49.2-4.36.22l-5.86.14q-4.53.09-6,.09h-3.25l.33-6.88c3.23-.14,6.15-.2,8.75-.2q2.63,0,7.53.05.26-5,.54-8.63-6.86.19-8.45.2-4.44,0-7.79-.09l.35-6.51c2-.08,3.5-.12,4.46-.13h5.51q3.71,0,9.17.22c0-.68,0-1.34.06-2L175,8.72c0-.11,0-.21,0-.31C166.37,9.38,155.37,10.73,143.53,12.46Zm16.24-7.07q-9.5,0-16.17-.06l0,2.5c0,.42,0,.95,0,1.58,11.91-1.07,22.87-1.76,31.47-2.2,0-.5,0-.82.06-.94l.06-.94Q168.51,5.39,159.77,5.39Z"/><path class="cls-1" d="M213.07,5.33l-.17,2.78c-.07,1.49-.13,2.72-.15,3.69s-.05,1.7-.05,2.2q-6-.32-10-.31h-2c-.28,3.33-.5,6.42-.65,9.24q-.32,6.08-.49,11.8T199.42,44l-6-.06-6.51.06q1.41-13.76,1.69-30.3l-12,.31.14-3.14c0-.84.07-1.73.1-2.65,10.29-1.14,16.84-1.71,16.84-1.71s-6.5.12-16.81.63c0-.59,0-1.19,0-1.8q8,.06,18.74.06l7,0h6.79Z"/><path class="cls-2" d="M221,44c.41-4.3.7-7.75.85-10.34q.34-5.77.68-14.95.26-7,.26-10V5.33c2.21.06,4.11.09,5.72.09s3.58,0,6.09-.13,4.87-.13,7.08-.13a43.26,43.26,0,0,1,6.65.46,15.53,15.53,0,0,1,5.34,1.87,13,13,0,0,1,4.14,3.71,16.64,16.64,0,0,1,2.55,5.36,22.77,22.77,0,0,1,.88,6.33,27.56,27.56,0,0,1-.68,6.16,22.85,22.85,0,0,1-1.9,5.34,17.35,17.35,0,0,1-2.84,4.09,16.43,16.43,0,0,1-3.73,2.93,15.61,15.61,0,0,1-3.14,1.42,23.53,23.53,0,0,1-4.34.82,62.35,62.35,0,0,1-6.93.34l-11.45-.08C225.14,43.91,223.39,43.93,221,44Zm12.24-8.52c1,.09,2.12.14,3.25.14a23.6,23.6,0,0,0,5.16-.51,8.22,8.22,0,0,0,4-2.18,10.09,10.09,0,0,0,2.53-4.29,17.81,17.81,0,0,0,.83-5.37,12.08,12.08,0,0,0-1.22-5.68,6.8,6.8,0,0,0-3.24-3.21,13.65,13.65,0,0,0-5.51-.91c-1.36,0-3,.06-4.82.17Z"/><path class="cls-2" d="M280.09,14.34a21.2,21.2,0,0,1,6.75,1.08,15,15,0,0,1,5.48,3.1,12.45,12.45,0,0,1,3.3,4.73,15.72,15.72,0,0,1,1.06,5.82,17.48,17.48,0,0,1-.94,5.76A14.47,14.47,0,0,1,292.52,40a14,14,0,0,1-5.76,3.58,23.47,23.47,0,0,1-14.32.14,14.73,14.73,0,0,1-5.53-3.06,12.75,12.75,0,0,1-3.35-4.81,16.32,16.32,0,0,1,0-11.78A13.74,13.74,0,0,1,267,19a16.13,16.13,0,0,1,5.85-3.44A22.1,22.1,0,0,1,280.09,14.34Zm-.2,8.33a5.55,5.55,0,0,0-5.37,3.66,10.49,10.49,0,0,0-.72,3.93A6.72,6.72,0,0,0,275.36,35a5.15,5.15,0,0,0,3.91,1.65,5.64,5.64,0,0,0,3.2-.94,5.83,5.83,0,0,0,2.14-2.81,10.86,10.86,0,0,0,.72-4,8.44,8.44,0,0,0-.57-3.17,4.76,4.76,0,0,0-1.85-2.26A5.34,5.34,0,0,0,279.89,22.67Z"/><path class="cls-2" d="M322.81,35c-.1.75-.33,2.14-.68,4.16l-.74,4.53a36.71,36.71,0,0,1-8.69,1.08,20.72,20.72,0,0,1-5.41-.63,12.35,12.35,0,0,1-4.93-2.6,11.41,11.41,0,0,1-3.26-4.56A18.73,18.73,0,0,1,297.88,30a19.66,19.66,0,0,1,1.19-6.77,13.44,13.44,0,0,1,3.51-5.37,12.08,12.08,0,0,1,5.16-2.83,25.38,25.38,0,0,1,6.26-.72,39.53,39.53,0,0,1,4.05.21,41.34,41.34,0,0,1,5,.92l.06.65c.05.68.1,1.38.12,2.09s.09,1.82.19,3.35l.17,2.52a22.18,22.18,0,0,0-7.17-1.41,8.42,8.42,0,0,0-3.92.86A5.51,5.51,0,0,0,310.05,26a8.41,8.41,0,0,0-.81,3.78,8.32,8.32,0,0,0,.72,3.66,4.69,4.69,0,0,0,2.31,2.21,8.19,8.19,0,0,0,3.48.73,15.76,15.76,0,0,0,2.28-.2c.88-.13,1.65-.28,2.3-.44A25,25,0,0,0,322.81,35Z"/><path class="cls-2" d="M325.59,43.45c-.08-.83-.15-1.7-.23-2.62s-.19-2.17-.36-3.78l-.23-2a44,44,0,0,0,4.72,1.6,14.29,14.29,0,0,0,3.64.53,8.17,8.17,0,0,0,2.25-.26,2.55,2.55,0,0,0,1.26-.73,1.56,1.56,0,0,0,.39-1,1.59,1.59,0,0,0-.3-.9,5.86,5.86,0,0,0-1.34-1.2q-2.31-1.7-4.08-3.09a16.91,16.91,0,0,1-2.65-2.46,7.94,7.94,0,0,1-1.36-2.32,7.31,7.31,0,0,1-.46-2.58,7.79,7.79,0,0,1,1.34-4.39,7.57,7.57,0,0,1,4-3,19.42,19.42,0,0,1,6.38-.92,63.57,63.57,0,0,1,10.06,1l.45,7.93a17.84,17.84,0,0,0-6.6-1.36,8.28,8.28,0,0,0-3.24.46,1.51,1.51,0,0,0-1,1.41,1.45,1.45,0,0,0,.12.59,1.84,1.84,0,0,0,.41.6,5.37,5.37,0,0,0,.73.64l2.14,1.51c1.13.79,2,1.44,2.66,1.95a14.35,14.35,0,0,1,2.42,2.31A8.15,8.15,0,0,1,348,33.67a7.4,7.4,0,0,1,.44,2.53,7.26,7.26,0,0,1-1,3.7,7.8,7.8,0,0,1-3,2.82,13.63,13.63,0,0,1-4.26,1.57,25.29,25.29,0,0,1-4.73.44,37.47,37.47,0,0,1-4.12-.29A58.3,58.3,0,0,1,325.59,43.45Z"/><path class="cls-2" d="M60.62,0A24.06,24.06,0,0,0,36.56,24.06c0,6.52,6.79,16.76,6.79,16.76C45.78,30.55,62.5,23.32,84,18.26A24.05,24.05,0,0,0,60.62,0Zm-7,47.09a44.18,44.18,0,0,0,7,1,24.06,24.06,0,0,0,24.06-24C63,30.16,48.27,37.84,53.62,47.09Zm48-27.2-1,.22"/></g></g></svg>