<svg id="Layer_1" data-name="Layer 1" xmlns="http://www.w3.org/2000/svg" viewBox="0 0 779.13 184.98"><defs><style>.cls-1{fill:#52a4db;}.cls-2{fill:none;stroke:#231f20;stroke-miterlimit:10;stroke-width:5px;}.cls-3{fill:#231f20;}</style></defs><title>Artboard 1</title><g id="Pencil"><path class="cls-1" d="M72.1,104.78l12.48,12.48,12.49,12.49h-25v-25m-2-4.82v31.79h31.79L86,115.85,70.1,100Z"/><path class="cls-1" d="M153,19.84l13.07,13.07L86,113,72.93,100,153,19.84M153,17,70.1,100,86,115.85l82.94-82.94L153,17Z"/><path class="cls-1" d="M168.94,35.74,182,48.81l-80.12,80.11L88.82,115.85l80.12-80.11m0-2.83L86,115.85l15.89,15.9,83-82.94-15.9-15.9Z"/><path class="cls-1" d="M168.94,12.47a20.49,20.49,0,0,1,15.83,33.44L170.35,31.49,155.94,17.08a20.4,20.4,0,0,1,13-4.61m0-2A22.42,22.42,0,0,0,153,17l15.9,15.9,15.9,15.9a22.44,22.44,0,0,0-15.9-38.34Z"/></g><line class="cls-2" x1="215.33" y1="182.58" x2="46.15" y2="182.58"/><line class="cls-2" x1="130.74" y1="182.58" x2="130.74" y2="153.48"/><path class="cls-3" d="M257.86,4V138.22H3.61V4H257.86m4-4H-.39V142.22H261.86V0Z"/><path class="cls-1" d="M283.45,3h39.43q11.67,0,18.84,3.17a30.6,30.6,0,0,1,11.87,9.08A37.49,37.49,0,0,1,360.38,29a63.7,63.7,0,0,1,2.11,16.64q0,13.77-3.13,21.36a35.35,35.35,0,0,1-8.7,12.71,28.35,28.35,0,0,1-12,6.83,61.64,61.64,0,0,1-15.82,2.34H283.45ZM310,22.48V69.41h6.51q8.31,0,11.83-1.85a12.47,12.47,0,0,0,5.51-6.44q2-4.6,2-14.91,0-13.65-4.45-18.69t-14.77-5Z"/><path class="cls-1" d="M376.38,3h71.13V21.36H403V35h41.31V52.53H403V69.47H448.8V88.92H376.38Z"/><path class="cls-1" d="M458.47,60.5l25.25-1.58q.82,6.15,3.34,9.38,4.11,5.2,11.72,5.21,5.69,0,8.76-2.66a8,8,0,0,0,3.08-6.19,7.88,7.88,0,0,0-2.93-6q-2.94-2.64-13.6-5-17.46-3.93-24.9-10.43a21,21,0,0,1-7.5-16.59,22.48,22.48,0,0,1,3.84-12.5,25.43,25.43,0,0,1,11.54-9.26q7.71-3.37,21.13-3.37,16.45,0,25.1,6.12t10.29,19.48l-25,1.47q-1-5.8-4.19-8.44t-8.82-2.64q-4.63,0-7,2a6,6,0,0,0-2.35,4.77A4.78,4.78,0,0,0,488.18,28q1.88,1.71,8.9,3.17,17.4,3.75,24.93,7.59t11,9.52A24.08,24.08,0,0,1,536.4,61a27.23,27.23,0,0,1-4.57,15.24,28.62,28.62,0,0,1-12.77,10.57q-8.2,3.61-20.69,3.61Q476.46,90.39,468,82T458.47,60.5Z"/><path class="cls-1" d="M550.81,3h26.6v85.9h-26.6Z"/><path class="cls-1" d="M639.64,57.81V39.94h41V76.56q-11.77,8-20.83,10.93a70.88,70.88,0,0,1-21.48,2.9q-15.29,0-24.93-5.22a35.58,35.58,0,0,1-14.94-15.53A51,51,0,0,1,593.18,46q0-14.05,5.8-24.46A37.53,37.53,0,0,1,616,5.72q8.73-4.15,23.5-4.16,14.24,0,21.29,2.58a27.63,27.63,0,0,1,11.72,8,35.67,35.67,0,0,1,7,13.74l-25.61,4.57A13.85,13.85,0,0,0,648.52,23a16.83,16.83,0,0,0-9.64-2.57q-8.73,0-13.92,6.06t-5.18,19.19q0,13.95,5.24,19.92t14.62,6a27.82,27.82,0,0,0,8.5-1.29,46.24,46.24,0,0,0,9.26-4.4V57.81Z"/><path class="cls-1" d="M696.59,3h24.79l32.34,47.53V3h25v85.9h-25L721.56,41.76V88.92h-25Z"/><path d="M278.76,154.4l8.79-.94q.7,7.09,3.19,11a18,18,0,0,0,7.12,6.36,22.35,22.35,0,0,0,10.43,2.4q8.32,0,12.92-4.06a13.42,13.42,0,0,0,4.6-10.56,12.76,12.76,0,0,0-1.67-6.63,12.53,12.53,0,0,0-5-4.65q-3.36-1.81-14.56-5.13-10-3-14.18-5.94a20.7,20.7,0,0,1-6.56-7.59,22.61,22.61,0,0,1-2.34-10.4q0-10.43,6.74-17t18.16-6.62a29.07,29.07,0,0,1,13.74,3.1,22,22,0,0,1,9.14,8.91,29.34,29.34,0,0,1,3.49,13.65l-9,.82c-.47-5.58-2.14-9.73-5-12.42s-6.9-4-12.1-4-9.29,1.18-12.07,3.54a11.49,11.49,0,0,0-4.16,9.17q0,5.22,3.05,8.08t13.71,5.82q10.43,2.88,14.64,5a22.47,22.47,0,0,1,13,21.44,26.63,26.63,0,0,1-3.46,13.43,23.29,23.29,0,0,1-9.4,9.22,30.15,30.15,0,0,1-14.33,3.16q-13.06,0-20.83-7.85T278.76,154.4Z"/><path d="M389,182.06V145.67L361.83,96.16h11.38L387,122.09q4.11,7.68,7.21,14.54,3.12-6.74,7.69-15.19l13.68-25.28H426.4l-28.13,49.51v36.39Z"/><path d="M453.21,154.4l8.79-.94q.71,7.09,3.2,11a17.93,17.93,0,0,0,7.11,6.36,22.35,22.35,0,0,0,10.43,2.4q8.33,0,12.92-4.06a13.42,13.42,0,0,0,4.6-10.56,12.76,12.76,0,0,0-1.67-6.63,12.53,12.53,0,0,0-5-4.65q-3.36-1.81-14.56-5.13-10-3-14.18-5.94a20.7,20.7,0,0,1-6.56-7.59,22.61,22.61,0,0,1-2.34-10.4q0-10.43,6.74-17t18.16-6.62a29.07,29.07,0,0,1,13.74,3.1,22,22,0,0,1,9.14,8.91,29.34,29.34,0,0,1,3.49,13.65l-9,.82c-.47-5.58-2.14-9.73-5-12.42s-6.9-4-12.1-4-9.29,1.18-12.07,3.54a11.49,11.49,0,0,0-4.16,9.17q0,5.22,3.05,8.08t13.71,5.82q10.42,2.88,14.64,5a22.47,22.47,0,0,1,13,21.44,26.63,26.63,0,0,1-3.46,13.43,23.29,23.29,0,0,1-9.4,9.22,30.15,30.15,0,0,1-14.33,3.16q-13.07,0-20.83-7.85T453.21,154.4Z"/><path d="M561.65,182.06V106.3h-23.2V96.16h55.83V106.3H571v75.76Z"/><path d="M625.49,182.06V96.16h50.92V106.3h-41.6v26.25h39v10.13h-39v29.24h43.24v10.14Z"/><path d="M712.25,182.06V96.16h14L743,157l3.34,12.71q1.23-4.74,3.76-13.76L767,96.16h12.55v85.9h-9V110.22L750,182.06h-8.37L721.22,109v73.08Z"/></svg>