<?xml version="1.0" encoding="utf-8"?>
<!-- Generator: Adobe Illustrator 22.1.0, SVG Export Plug-In . SVG Version: 6.00 Build 0)  -->
<svg version="1.1" id="Comet_Styleguide_using_vue" xmlns="http://www.w3.org/2000/svg" xmlns:xlink="http://www.w3.org/1999/xlink"
	 x="0px" y="0px" viewBox="0 0 400 240" style="enable-background:new 0 0 400 240;" xml:space="preserve">
<style type="text/css">
	.st0{fill:#4DBA87;}
	.st1{fill:#4DF287;}
	.st2{fill:#435466;}
	.st3{fill:#003A65;}
</style>
<title>logoArtboard 1 copy 4</title>
<polygon class="st0" points="320,120 227.8,120 200.1,73.9 172.3,120 80,120 125,45 200,0 275.1,45.1 "/>
<polygon class="st1" points="320,120 275,195 275,195 200,240 125.1,195.1 80,120 172.3,120 200.1,166.1 227.8,120 "/>
<polygon class="st2" points="400,120.1 275,195 275,195 200,240 200,166.2 277,120 200,73.7 200,0 275.1,45.1 "/>
<polygon class="st3" points="200,0 200,73.8 123,120 200,166.3 200,240 125.1,195.1 0,120.1 125,45 "/>
</svg>
